<?xml version="1.0" encoding="UTF-8" standalone="no"?>
<!-- Created with Inkscape (http://www.inkscape.org/) -->

<svg
   xmlns:dc="http://purl.org/dc/elements/1.1/"
   xmlns:cc="http://creativecommons.org/ns#"
   xmlns:rdf="http://www.w3.org/1999/02/22-rdf-syntax-ns#"
   xmlns:svg="http://www.w3.org/2000/svg"
   xmlns="http://www.w3.org/2000/svg"
   xmlns:sodipodi="http://sodipodi.sourceforge.net/DTD/sodipodi-0.dtd"
   xmlns:inkscape="http://www.inkscape.org/namespaces/inkscape"
   width="81.55938mm"
   height="109.71365mm"
   viewBox="0 0 288.98993 388.74911"
   id="svg4120"
   version="1.1"
   inkscape:version="0.91 r13725"
   sodipodi:docname="girl.svg">
  <defs
     id="defs4122" />
  <sodipodi:namedview
     id="base"
     pagecolor="#ffffff"
     bordercolor="#666666"
     borderopacity="1.0"
     inkscape:pageopacity="0.0"
     inkscape:pageshadow="2"
     inkscape:zoom="0.98994949"
     inkscape:cx="143.97059"
     inkscape:cy="387.64158"
     inkscape:document-units="px"
     inkscape:current-layer="layer1"
     showgrid="false"
     inkscape:window-width="1920"
     inkscape:window-height="1018"
     inkscape:window-x="-8"
     inkscape:window-y="-8"
     inkscape:window-maximized="1"
     fit-margin-top="0"
     fit-margin-left="0"
     fit-margin-right="0"
     fit-margin-bottom="0"
     inkscape:snap-page="true"
     inkscape:snap-bbox="true"
     inkscape:bbox-paths="true"
     inkscape:bbox-nodes="true" />
  <metadata
     id="metadata4125">
    <rdf:RDF>
      <cc:Work
         rdf:about="">
        <dc:format>image/svg+xml</dc:format>
        <dc:type
           rdf:resource="http://purl.org/dc/dcmitype/StillImage" />
        <dc:title></dc:title>
      </cc:Work>
    </rdf:RDF>
  </metadata>
  <g
     inkscape:label="Layer 1"
     inkscape:groupmode="layer"
     id="layer1"
     transform="translate(18.328488,-424.00978)">
    <g
       id="g3529"
       transform="matrix(0.71129315,0,0,0.71129315,174.43859,667.14926)">
      <g
         id="g4498"
         transform="matrix(1.225171,0,0,1.2251711,-212.11476,-169.29604)">
        <g
           id="g4477">
          <path
             id="path4959"
             sodipodi:nodetypes="cccccccccccc"
             inkscape:connector-curvature="0"
             class="st35"
             d="m 147.8,287.7 8.4,-7.3 c 7.8,-39.8 12.5,-98 50.4,-121 l 10,-4.7 16.8,-5.2 7.6,-2.9 -19.2,1 -15.2,3.7 -4.5,1.6 -0.5,1.6 c -35.8,31.9 -50.3,80.5 -53.3,126.7 l -0.5,6.5 z"
             style="fill:#536c5d;stroke:#37483e;stroke-width:1.60000002" />
          <path
             id="path4943"
             sodipodi:nodetypes="cccccc"
             inkscape:connector-curvature="0"
             class="st35"
             d="m 27.9,148.8 c 39.7,37.2 37.5,77.4 24.5,126.5 l 4.9,4.9 C 66.9,239.6 70,184.7 42,150.8 l -10.8,-9.9 -3.3,7.9 z"
             style="fill:#536c5d;stroke:#37483e;stroke-width:1.60000002" />
          <path
             id="path4945"
             sodipodi:nodetypes="ccccccc"
             inkscape:connector-curvature="0"
             class="st14"
             d="m 32,140.9 c 8.8,-10.6 14.9,-11.4 29,-13.7 27,60.6 20.2,109.8 9.9,164.5 l -1.3,-15.8 -12.8,5.3 3.3,-15.7 C 60.8,260.3 78.8,188.6 32,140.9 l 0,0 z"
             style="fill:#6f917c;stroke:#37483e;stroke-width:1.60000002" />
          <path
             id="path4947"
             sodipodi:nodetypes="cccccccccc"
             inkscape:connector-curvature="0"
             class="st6"
             d="m 71.2,292.1 13.2,-6.4 5.2,-2.6 3.1,-27.4 2.4,-46.4 1,-43 -0.3,-29.7 -1,-12.6 c -14.8,-1.7 -20.2,-0.9 -33.6,3.4 25.5,58.5 19,104.1 10,164.7 l 0,0 z"
             style="fill:#93ac9d;stroke:#37483e;stroke-width:1.60000002" />
          <path
             id="path4951"
             sodipodi:nodetypes="ccccccssc"
             inkscape:connector-curvature="0"
             class="st14"
             d="m 99.3,275.9 4.4,20.5 6.9,-22.3 7,19.1 C 114.5,231.5 132,178.6 153,129.7 c -20.2,-4.3 -38.8,-4.3 -58.5,-5.5 2.3,36.8 2.3,72.9 0,108.9 -1.1,16.4 -2.6,32.7 -4.6,49.1 -0.5,3.5 9.9,-9.8 9.4,-6.3 l 0,0 z"
             style="fill:#6f917c;stroke:#37483e;stroke-width:1.60000002" />
          <path
             id="path4955"
             sodipodi:nodetypes="ccczcc"
             inkscape:connector-curvature="0"
             class="st6"
             d="m 117.6,293.2 16.3,-1.3 c 2,-54 12.9,-114.8 51.2,-153.8 0,0 -11.5,-3.6 -16.8,-5 C 163,131.8 153.1,130 153.1,130 128.2,186.6 117,233 117.6,293.2 Z"
             style="fill:#93ac9d;stroke:#37483e;stroke-width:1.60000002" />
          <path
             id="path4957"
             sodipodi:nodetypes="cccccc"
             inkscape:connector-curvature="0"
             class="st14"
             d="m 134.4,291.9 13.1,-4.2 C 154,231.3 165,176.8 213.4,146 l -13.1,-3.9 -15.5,-3.9 c -39.9,45.7 -48.6,95.2 -50.4,153.7 z"
             style="fill:#6f917c;stroke:#37483e;stroke-width:1.60000002" />
          <g
             id="g4468">
            <path
               id="path4398"
               sodipodi:nodetypes="ccccccccccc"
               inkscape:connector-curvature="0"
               class="st2"
               d="m 241,146.5 -19.2,1 -15.2,3.7 -4.5,1.6 -0.4,2.2 c -10.8,9.5 -17.8,18.7 -24.6,29.6 2.8,-1.6 4.3,-1.7 4.4,0.8 4.8,-9.4 14.2,-20.1 24.8,-26.5 l 10.3,-4.3 16.8,-5.2 7.6,-2.9 z"
               style="fill:#485547" />
            <path
               id="path4400"
               sodipodi:nodetypes="cccccc"
               inkscape:connector-curvature="0"
               class="st66"
               d="m 31.2,140.9 -3.3,7.9 c 9,6.9 21.2,23.1 26.4,35.4 -0.2,-1.4 -0.1,-1.8 2.4,-1.3 -4.8,-13.2 -8.6,-21.4 -18.2,-34 l -7.3,-8 z"
               style="fill:#40554a" />
            <path
               id="path4402"
               sodipodi:nodetypes="ccccc"
               inkscape:connector-curvature="0"
               class="st16"
               d="m 61,127.2 c -14.1,2.3 -19.6,2.9 -28.4,13.6 12.6,13 20.6,27.6 25.4,42.3 1.7,-5.5 9.4,-5.2 17.9,-3.9 -2.2,-15.9 -7.3,-34 -14.9,-52 l 0,0 z"
               style="fill:#536c5d" />
            <path
               id="path4404"
               sodipodi:nodetypes="scccscs"
               inkscape:connector-curvature="0"
               class="st45"
               d="m 83.1,123.1 c -7.3,0 -12,1.2 -21.2,4.1 7.9,18.1 12.2,33.9 15.2,51.5 7,-5 12,-4.1 18.2,-2.5 0.3,-4.8 0.3,-12.4 0,-21.3 -0.3,-9.7 -0.7,-20.9 -0.5,-31.1 -4.6,-0.4 -8.3,-0.7 -11.7,-0.7 l 0,0 z"
               style="fill:#69866e" />
            <path
               id="path4406"
               sodipodi:nodetypes="cccccc"
               inkscape:connector-curvature="0"
               class="st16"
               d="m 94.5,124.2 c 1.6,17.3 2.7,34.7 1.7,52.2 13.2,-4.8 25.9,-7.7 38.3,-0.2 5.3,-16 12,-31.4 18.5,-46.5 -20.1,-4.2 -38.7,-4.3 -58.5,-5.5 z"
               style="fill:#536c5d" />
            <path
               id="path4408"
               sodipodi:nodetypes="ccccsc"
               inkscape:connector-curvature="0"
               class="st42"
               d="m 153,130 c -7.1,16.1 -12.4,31.6 -17.3,46.6 9.6,-2 16.4,-2.2 20.8,2.6 7.1,-15.2 16.8,-29.1 28.5,-41.1 0,0 -11.5,-3.6 -16.8,-5 C 162.9,131.8 153,130 153,130 l 0,0 z"
               style="fill:#678972" />
            <path
               id="path4410"
               sodipodi:nodetypes="cccccc"
               inkscape:connector-curvature="0"
               class="st16"
               d="m 184.8,138.1 c -11.7,13.4 -20.2,27.7 -27.2,41.8 7,-3.1 15.5,-1.4 18.3,3.5 9,-14.8 21.3,-27.2 37.5,-37.5 l -13.1,-3.9 -15.5,-3.9 z"
               style="fill:#536c5d" />
          </g>
          <path
             id="path4941"
             sodipodi:nodetypes="zcczccccczzzzzzccz"
             inkscape:connector-curvature="0"
             class="st29"
             d="m 5.9,110.7 c 33.2,-13.5 190.5,-36 260.6,7 7.6,4.9 13.7,12 15.7,20.3 4.9,32.3 -24.6,22.4 -32.7,14.5 -8.1,-7.9 -27.7,0.4 -39.4,1.7 -17.1,2.3 -32,-2.7 -47.2,-7.9 -6.6,-2.2 -12,-5.4 -17.4,-6.2 -27.4,6.2 -54.9,2.9 -78.7,-5.4 -13.2,-4.3 -14.7,3.7 -24,8.3 -2.4,1.1 -6.1,1.8 -7.9,1.2 -1.8,-0.6 -1.4,-2.9 -2.5,-2.5 -1.1,0.4 0.3,1.8 -0.4,3.3 -0.7,1.5 -2.7,4 -4.6,4.6 -1.9,0.5 -3.7,-1.1 -5,-1.2 -1.3,-0.2 -1.5,-0.9 -2.5,0 -1,0.9 0.2,3.4 -0.4,5.4 -4.7,12.4 -21.4,16.2 -32.6,8.2 -14.2,-11.5 -14.1,-37.8 19,-51.3 l 0,0 z"
             style="fill:#800080;stroke:#440055;stroke-width:1.60000002" />
          <path
             id="path4382"
             sodipodi:nodetypes="sscccccccsssssscccccsccccccccs"
             inkscape:connector-curvature="0"
             class="st37"
             d="m 63.4,124.8 c -5,-0.1 -9.3,1.6 -12.8,3.2 -3.5,1.6 -5.8,3.9 -8.2,5.5 -8.3,9.4 -9.5,-0.3 -13.4,0.9 -1.6,8.5 -4.6,7.6 -9.3,5 -2.1,0 -3.9,0.9 -5.5,2.9 -5.4,16.9 -20.7,19.4 -34.8,8.6 1.1,4.3 3.7,8.1 7.5,11.2 11.2,8 27.9,4.2 32.7,-8.3 0.6,-2 -0.6,-4.5 0.4,-5.4 1,-0.9 1.2,-0.2 2.5,0 1.3,0.2 3.1,1.8 5,1.2 1.9,-0.5 3.8,-3.1 4.6,-4.6 0.7,-1.5 -0.7,-2.9 0.4,-3.3 1.1,-0.4 0.7,1.9 2.5,2.5 1.8,0.6 5.5,-0.2 7.9,-1.2 9.3,-4.6 10.8,-12.6 24,-8.3 23.9,8.3 51.3,11.6 78.7,5.4 5.4,0.9 10.8,4 17.4,6.2 15.2,5.2 30.1,10.1 47.2,7.9 11.6,-1.3 31.3,-9.5 39.4,-1.7 8.1,7.9 37.6,17.8 32.7,-14.5 -1,-4.3 -3.2,-8.2 -6,-11.7 16.8,24 -16.4,38.3 -25,12.5 -6.6,-5.6 -15.6,-1.7 -22.4,-0.9 -4.2,0.5 -9.6,1.4 -14.3,2 -16.7,2.8 -33.3,2.8 -48.9,-1.7 -6.6,-2 -12.5,-7.6 -19.8,-8.4 -27.1,3.5 -38.9,4.4 -66.1,-0.3 -7,-1.7 -11.4,-4.6 -16.4,-4.7 z"
             style="fill:#660080" />
          <path
             id="path4979"
             sodipodi:nodetypes="ccccccccccccccccczccccccccccccccccccccccccccccccccccccc"
             inkscape:connector-curvature="0"
             class="st54"
             d="m 45.7,239.1 c -6.6,3.7 -10.5,11.1 -8.6,26.4 -9.5,4.2 -13.5,-7 -17.8,-17.2 0.7,15.1 2,29.4 13.5,30.9 -7.5,-0.3 -15.4,1 -20.9,-7.1 -0.5,10.2 4.2,12.5 9.1,14.6 -6,-1.2 -13.9,0.9 -17,-5.2 1,11.4 5.7,13.5 16.6,15.6 -0.9,-1 -1.3,-2.3 -1.1,-4 5.6,4.1 11.4,1.6 18.7,0.2 -5.1,-1.5 -9,-2.1 -13.8,-10 7.2,2.3 9.2,2.6 16.6,2.3 -1.9,-7.8 -1.6,-12.8 1.9,-21.4 -0.7,6.5 5.7,22.2 12.7,27 -2.4,-9 6.2,-11.2 13.1,-13.2 -2.8,4.9 -6.1,9.7 0.2,15.7 11.3,-1.1 24.2,-10.7 29.7,-15.5 -0.9,9 -3.2,11.3 -0.5,19.4 2.7,8.1 16.1,10.9 11.6,-0.2 -1.5,-4.4 -0.5,-6.9 1.8,-16 3.9,13.7 6.5,16.6 18.4,21.3 -1.5,-2.7 -2.7,-6.1 0.6,-11.5 0.3,9.6 17.1,10.2 18.7,10.3 -0.3,-3.7 0.7,-11.3 7.9,-15.2 0,4.8 0.8,9 6.3,10.2 -0.1,-9.2 6,-11.1 10.7,-14.7 -2.9,5.2 -6.7,10.5 -0.8,14.2 6.7,0 14.9,-4.1 18,-9.5 -1.4,4.3 0.4,7.7 -6.2,11 6.6,-2.2 5.9,0.2 15.9,-2.8 -0.6,1.2 -3.4,5.1 -4,5.9 6.7,-2.9 11,-5.3 13.2,-13.2 -4.4,4.2 -9.3,7 -16.2,4.7 7.6,-7 15.6,-13.7 16.4,-24.3 -3.5,12.1 -13.3,14.8 -22.7,18 7.2,-7.5 6.3,-16.5 8.2,-24.9 -5.2,13.1 -12.1,15.6 -18.8,19.9 6.6,-6.4 3.8,-16.7 5.2,-25.3 -3.1,10.7 -10.3,22.3 -16.9,22.3 -5.9,-7.3 -2.1,-17.8 0.8,-28.1 -4.6,7.1 -10.7,10.8 -10.7,29 -5.4,-2.5 -6.3,-10.9 -6.3,-20.3 -9.5,10.1 -7.7,19.7 -7.2,29.4 -11.7,1.4 -11.1,-9.2 -8.5,-21.7 -11,13.9 -8.8,17.1 -9,26.9 -6.7,-8.2 -12.7,-17.5 -10.7,-36.6 -7,6.2 -6.5,22.5 -9.2,34.5 -0.2,-11.2 -1.2,-21.9 -7.1,-30.2 -4.6,19.3 -12.7,20.2 -19.8,25.9 5.1,-7.3 4.8,-21.8 5.3,-35.3 -5.5,9.6 -10.4,19.9 -21.7,22 -6.2,-11.9 -2.9,-21.4 -0.2,-31 -6.9,4.1 -15,6.3 -12.6,24.1 -7.1,-9.5 -7.4,-18.6 -2.8,-27.3 l 0,0 z"
             style="fill:#006680;stroke:#004455;stroke-width:1.07679999" />
          <path
             id="path4390"
             sodipodi:nodetypes="zzzzz"
             inkscape:connector-curvature="0"
             class="st0"
             d="m 4.6,126.3 c -7.2,4.9 -14,18.1 -19.5,14 -5.5,-4.2 2.9,-13.8 9,-18.6 6.1,-4.8 27.1,-16.5 28.8,-8.4 1.8,7.9 -11.1,8 -18.3,13 l 0,0 z"
             style="fill:#aa00d4" />
        </g>
      </g>
      <g
         id="g4558"
         transform="matrix(1.0957964,-0.06052864,0.06052864,1.0957964,0.18763681,-3.4965507)">
        <path
           id="path3348"
           sodipodi:nodetypes="cccccczcccc"
           inkscape:connector-curvature="0"
           class="st17"
           d="m -40.3,-208.6 c -1.6,2.2 -10.4,4.8 -10.4,4.8 0.4,7.1 0.3,14.2 7,21.3 6.2,6.3 13,9.4 20.5,9.5 13.9,-0.7 17.9,-6.7 20.1,-13.6 3.9,-13.2 -2.2,-26.3 -10.4,-25.7 0,0 -2.8,-2.7 -4,-5.1 -1.3,-2.4 -2.9,-8.2 -2.9,-8.2 l -0.5,-9.6 -21.3,8.7 c 2.6,9 4.7,13.3 1.9,17.9 l 0,0 z"
           style="fill:#ffe6d5;stroke:#d38d5f;stroke-width:1.39999998" />
        <path
           id="path4305"
           sodipodi:nodetypes="cccc"
           inkscape:connector-curvature="0"
           class="st20"
           d="m -20.7,-277.1 c 7.6,11 -4.5,22.2 -0.6,34.3 1.8,-12.7 16.4,-14.8 13.2,-34 -2.3,-3 -13.6,-5.1 -12.6,-0.3 z"
           style="fill:#d40000;stroke:#550000;stroke-width:1.29999995" />
        <path
           id="path4632"
           sodipodi:nodetypes="cccccccccc"
           inkscape:connector-curvature="0"
           class="st7"
           d="m -40.3,-219.7 c 7.8,1.8 16.6,-4.7 19,-10.7 l 0.6,5.3 c 0.4,3.2 3.4,10.9 7.2,13.1 1.9,0 1.6,0.1 3.6,0.7 1.6,0.7 2,1.9 2.7,3 -1.8,-1.1 -4.2,-2 -7.3,-2.1 -2.7,-2.5 -5.1,-5 -6.7,-8.3 -5.1,4.1 -11.6,6.1 -17.5,3.8 0,-1.1 -0.8,-3.9 -1.6,-4.8 z"
           style="fill:#e9c6af" />
        <g
           id="g4634"
           transform="translate(-115.26813,-41.113368)">
          <g
             id="g4399"
             transform="matrix(0.75210711,0,0,0.75210711,682.70509,146.30336)">
            <path
               id="path4363"
               sodipodi:nodetypes="ccccc"
               inkscape:connector-curvature="0"
               class="st24"
               d="m -771.5,-469.4 c 1.8,5.8 -2.3,4.4 -4.8,11.3 -0.5,-3.9 -0.9,-6.4 2.9,-10.8 0.4,-0.7 1.7,-1.8 1.7,-1.8 0,0 0.1,0.6 0.2,1.3 z"
               style="fill:#ff0000;stroke:#550000" />
            <path
               id="path4361"
               sodipodi:nodetypes="ccccc"
               inkscape:connector-curvature="0"
               class="st43"
               d="m -780.2,-467.1 c -1.8,5.8 2.3,4.4 4.8,11.3 0.5,-3.9 0.9,-6.4 -2.9,-10.8 -0.4,-0.7 -1.7,-1.8 -1.7,-1.8 0,0 -0.1,0.5 -0.2,1.3 z"
               style="fill:#aa0000;stroke:#550000" />
            <path
               id="path4367"
               sodipodi:nodetypes="ccccc"
               inkscape:connector-curvature="0"
               class="st62"
               d="m -770.9,-463.8 c 1.8,5.8 -2.3,4.4 -4.8,11.3 -0.5,-3.9 -0.9,-6.4 2.9,-10.8 0.4,-0.7 1.7,-1.8 1.7,-1.8 0,0 0.1,0.6 0.2,1.3 z"
               style="fill:#d40000;stroke:#550000" />
            <path
               id="path4365"
               sodipodi:nodetypes="ccccc"
               inkscape:connector-curvature="0"
               class="st24"
               d="m -780.5,-460.8 c -1.8,5.8 2.3,4.4 4.8,11.3 0.5,-3.9 0.9,-6.4 -2.9,-10.8 -0.4,-0.7 -1.7,-1.8 -1.7,-1.8 0,0 0,0.5 -0.2,1.3 z"
               style="fill:#ff0000;stroke:#550000" />
            <path
               id="path4369"
               sodipodi:nodetypes="ccccc"
               inkscape:connector-curvature="0"
               class="st24"
               d="m -771.5,-456.4 c 1.8,5.8 -2.3,4.4 -4.8,11.3 -0.5,-3.9 -0.9,-6.4 2.9,-10.8 0.4,-0.7 1.7,-1.8 1.7,-1.8 0,0 0.1,0.6 0.2,1.3 z"
               style="fill:#ff0000;stroke:#550000" />
            <path
               id="path4371"
               sodipodi:nodetypes="ccccc"
               inkscape:connector-curvature="0"
               class="st43"
               d="m -780.2,-454.1 c -1.8,5.8 2.3,4.4 4.8,11.3 0.5,-3.9 0.9,-6.4 -2.9,-10.8 -0.4,-0.7 -1.7,-1.8 -1.7,-1.8 0,0 -0.1,0.5 -0.2,1.3 z"
               style="fill:#aa0000;stroke:#550000" />
            <path
               id="path4373"
               sodipodi:nodetypes="ccccc"
               inkscape:connector-curvature="0"
               class="st62"
               d="m -770.9,-450.8 c 1.8,5.8 -2.3,4.4 -4.8,11.3 -0.5,-3.9 -0.9,-6.4 2.9,-10.8 0.4,-0.7 1.7,-1.8 1.7,-1.8 0,0 0.1,0.6 0.2,1.3 z"
               style="fill:#d40000;stroke:#550000" />
            <path
               id="path4375"
               sodipodi:nodetypes="ccccc"
               inkscape:connector-curvature="0"
               class="st24"
               d="m -780.5,-447.9 c -1.8,5.8 2.3,4.4 4.8,11.3 0.5,-3.9 0.9,-6.4 -2.9,-10.8 -0.4,-0.7 -1.7,-1.8 -1.7,-1.8 0,0 0,0.6 -0.2,1.3 z"
               style="fill:#ff0000;stroke:#550000" />
            <path
               id="path4377"
               sodipodi:nodetypes="ccccc"
               inkscape:connector-curvature="0"
               class="st24"
               d="m -771.5,-443.4 c 1.8,5.8 -2.3,4.4 -4.8,11.3 -0.5,-3.9 -0.9,-6.4 2.9,-10.8 0.4,-0.7 1.7,-1.8 1.7,-1.8 0,0 0.1,0.6 0.2,1.3 z"
               style="fill:#ff0000;stroke:#550000" />
            <path
               id="path4379"
               sodipodi:nodetypes="ccccc"
               inkscape:connector-curvature="0"
               class="st43"
               d="m -780.2,-441.1 c -1.8,5.8 2.3,4.4 4.8,11.3 0.5,-3.9 0.9,-6.4 -2.9,-10.8 -0.4,-0.7 -1.7,-1.8 -1.7,-1.8 0,0 -0.1,0.5 -0.2,1.3 z"
               style="fill:#aa0000;stroke:#550000" />
            <path
               id="path4381"
               sodipodi:nodetypes="ccccc"
               inkscape:connector-curvature="0"
               class="st62"
               d="m -770.9,-437.8 c 1.8,5.8 -2.3,4.4 -4.8,11.3 -0.5,-3.9 -0.9,-6.4 2.9,-10.8 0.4,-0.7 1.7,-1.8 1.7,-1.8 0,0 0.1,0.6 0.2,1.3 z"
               style="fill:#d40000;stroke:#550000" />
            <path
               id="path4383"
               sodipodi:nodetypes="ccccc"
               inkscape:connector-curvature="0"
               class="st24"
               d="m -780.5,-434.9 c -1.8,5.8 2.3,4.4 4.8,11.3 0.5,-3.9 0.9,-6.4 -2.9,-10.8 -0.4,-0.7 -1.7,-1.8 -1.7,-1.8 0,0 0,0.6 -0.2,1.3 z"
               style="fill:#ff0000;stroke:#550000" />
            <path
               id="path4385"
               sodipodi:nodetypes="ccccc"
               inkscape:connector-curvature="0"
               class="st24"
               d="m -771.4,-430.8 c 1.8,5.8 -2.3,4.4 -4.8,11.3 -0.5,-3.9 -0.9,-6.4 2.9,-10.8 0.4,-0.7 1.7,-1.8 1.7,-1.8 0,0 0.1,0.5 0.2,1.3 z"
               style="fill:#ff0000;stroke:#550000" />
            <path
               id="path4387"
               sodipodi:nodetypes="ccccc"
               inkscape:connector-curvature="0"
               class="st43"
               d="m -780.1,-428.6 c -1.8,5.8 2.3,4.4 4.8,11.3 0.5,-3.9 0.9,-6.4 -2.9,-10.8 -0.4,-0.7 -1.7,-1.8 -1.7,-1.8 0,0 -0.1,0.5 -0.2,1.3 z"
               style="fill:#aa0000;stroke:#550000" />
            <path
               id="path4389"
               sodipodi:nodetypes="ccccc"
               inkscape:connector-curvature="0"
               class="st62"
               d="m -770.8,-425.2 c 1.8,5.8 -2.3,4.4 -4.8,11.3 -0.5,-3.9 -0.9,-6.4 2.9,-10.8 0.4,-0.7 1.7,-1.8 1.7,-1.8 0,0 0.1,0.5 0.2,1.3 z"
               style="fill:#d40000;stroke:#550000" />
            <path
               id="path4391"
               sodipodi:nodetypes="ccccc"
               inkscape:connector-curvature="0"
               class="st24"
               d="m -780.3,-422.3 c -1.8,5.8 4,8.9 4.8,14.8 0.5,-3.9 0.9,-9.8 -2.9,-14.2 -0.4,-0.7 -1.7,-1.8 -1.7,-1.8 0,0 -0.1,0.4 -0.2,1.2 z"
               style="fill:#ff0000;stroke:#550000" />
            <path
               id="path4393"
               sodipodi:nodetypes="ccccc"
               inkscape:connector-curvature="0"
               class="st24"
               d="m -770.8,-418.7 c 1.8,5.8 -2.3,4.4 -4.8,11.3 -0.5,-3.9 -0.9,-6.4 2.9,-10.8 0.4,-0.7 1.7,-1.8 1.7,-1.8 0,0 0.1,0.5 0.2,1.3 z"
               style="fill:#ff0000;stroke:#550000" />
            <path
               id="path4397"
               sodipodi:nodetypes="cscscccccccc"
               inkscape:connector-curvature="0"
               class="st62"
               d="m -778.6,-393.6 c 2.2,-1.7 2.6,-4.4 2.6,-6.5 0,-1.4 -0.1,-1.8 -0.3,-2.9 0.7,0.9 0.8,1.6 0.9,2.4 0.5,3.8 -3.6,7.7 -1.6,11.7 0.6,0.9 1.7,1.3 1.7,1.3 -0.7,-4.8 2.4,-8.5 2.1,-12.5 0.7,4.1 -1.9,7.8 0,9.8 0.8,-8.7 8.5,-15.1 -0.9,-18.2 -1.1,-0.3 -2,-0.4 -3.1,-0.2 -6.2,2.7 0.6,8.8 -1.4,15.1 l 0,0 z"
               style="fill:#d40000;stroke:#550000" />
            <path
               id="path4395"
               sodipodi:nodetypes="ccccccc"
               inkscape:connector-curvature="0"
               class="st11"
               d="m -779.2,-414.8 c 2.9,2.6 4.7,2.7 8.3,0.9 -0.1,1 1.6,1.6 -0.9,3.1 2,1.1 0.7,2.6 0.2,3 -1.7,1.8 -5.5,1.9 -7.3,0 -0.4,-0.7 -0.6,-1.6 0.7,-2.4 -2.5,-1.1 -1.7,-3.1 -1,-4.6 z"
               style="fill:#55d400;stroke:#225500" />
          </g>
        </g>
        <path
           id="path3357"
           sodipodi:nodetypes="ccccccccczsc"
           inkscape:connector-curvature="0"
           class="st50"
           d="m -57.4,-238.6 c -0.2,8.7 11.1,19 18.5,20.4 10.1,1 16.9,-6.7 19.1,-14.6 1.3,-4.7 0.1,-9 1.9,-12.3 2.6,2.5 5,-3.6 4.8,-9.7 0.2,-4.3 -2.8,-11.5 -7.3,-8.6 -2.3,1.6 -2.6,7.1 -2.3,10.7 -0.4,-2.9 0.1,-6.1 -0.5,-9 -4.3,-23.8 -41.1,-13.6 -38.7,3.4 1,5.6 2.2,6.8 2.3,9.1 0.1,2.2 -0.6,3.3 0.2,3.8 1.8,0.9 2.8,4.5 2,6.8 z"
           style="fill:#ffe6d5;stroke:#d38d5f;stroke-width:1.38499999" />
        <path
           id="path3381"
           sodipodi:nodetypes="cczzcccccccccc"
           inkscape:connector-curvature="0"
           class="st60"
           d="m -97.8,7.1 c -1.7,-2 -6.4,-5.8 -3.7,-10.5 8.3,-11.6 27.9,-10.4 33.6,-10.2 5.7,0.2 50.6,18 71,14.1 C 23.5,-3.4 34.1,7.8 23,20.3 37.3,10.4 34.6,-2.5 30.5,-14 23.7,-25 18.4,-35.6 15.1,-45.9 L -65.6,-52 c -15.5,-0.5 -31,0 -46.6,1 l -4.1,4.1 c -1,15.7 -3.2,31.5 8.7,45.8 l 2.4,4.4 6.5,3.4 0.9,0.4 z"
           style="fill:#677821;stroke:#445016;stroke-width:1.39999998" />
        <path
           id="path3377"
           sodipodi:nodetypes="ccczc"
           inkscape:connector-curvature="0"
           class="st57"
           d="m -74.6,-85.1 7.9,33.3 c -22.4,-1.5 -44.5,0.7 -66.7,4.1 0,0 24.1,-11.3 33.6,-17.6 9.6,-6.3 25.2,-19.8 25.2,-19.8 l 0,0 z"
           style="fill:#445500;stroke:#445500" />
        <path
           id="path3379"
           sodipodi:nodetypes="czzccccc"
           inkscape:connector-curvature="0"
           class="st68"
           d="m -74,-85.5 c 0,0 -15.8,16.7 -21.9,22.1 -6.1,5.4 -13,9.5 -14.1,10.8 -1.1,1.2 -1.7,1.9 -2.5,3.5 -9.7,29.2 -0.6,47.3 16.7,56.5 -18.7,6.3 -46,-10 -47.5,-15 10.7,-13 1,-39.2 14.1,-45 20.8,-8.7 37.8,-19.7 55.2,-32.9 l 0,0 z"
           style="fill:#88aa00;stroke:#445500;stroke-width:1.39999998" />
        <path
           id="path3366"
           sodipodi:nodetypes="ccccccccczzzzccc"
           inkscape:connector-curvature="0"
           class="st22"
           d="m -94.1,37 c -2.9,3 -5.9,5.8 -9.7,7.8 l 3.5,11.1 5.7,-0.8 c 0,0 -0.4,5.7 -0.4,8.5 0.1,11.2 0.6,24.7 11.2,35.3 1.3,1.3 1.2,1.5 3.2,2.3 5.4,1 9,0.8 13.5,-0.4 2.3,-1.9 -0.7,-3.7 -1.4,-5.8 0,0 -7.5,1.4 -10.1,0.6 -2.6,-0.8 -2.1,-0.4 -4.2,-2.9 -2.1,-2.5 -4.5,-8 -5.7,-12.6 -1.2,-4.6 -0.6,-10 -0.8,-14.2 C -89.5,61.7 -89.7,55 -89.7,55 l -2.1,-9.3 -2.3,-8.7 z"
           style="fill:#803300;stroke:#552200;stroke-width:1.39999998" />
        <path
           id="path4774"
           sodipodi:nodetypes="cccccccc"
           inkscape:connector-curvature="0"
           class="st25"
           d="m 8.8,-46 c -1.3,1.6 -0.3,2 -0.6,4.6 C 4,-31 -27.4,-13.1 -24,-2.5 -18.8,-0.1 -6.1,0.7 -3,0.4 0.8,-5.4 5.4,-13.3 7.1,-17.4 9.6,-21.9 4.4,-21 4.4,-21 9.2,-31 12,-40.9 13.1,-45.6 L 8.8,-46 Z"
           style="fill:#5e6b09" />
        <path
           id="path3383"
           sodipodi:nodetypes="ccssssssscccccssssscccccccccczzzzcczcc"
           inkscape:connector-curvature="0"
           class="st28"
           d="m -92.2,62.3 c 0,0 -0.3,8.3 0,12 0,1 -0.9,3.2 0.5,3.7 0.3,0.1 5.9,-1.8 5.7,-1 0,0.1 -3.8,0.5 -5.2,2 -0.4,0.4 0.8,4 0.6,3.3 -0.5,-1.3 10.2,-4.1 10.8,-2.2 0.1,0.4 -8.6,0.6 -10,2.8 -0.5,0.8 -0.2,1.2 -0.2,1.4 2.2,6.2 6.5,14.5 10.7,15.1 0,0 8.1,0.8 10.3,-0.2 4.9,-2.5 1.3,-7.1 0.1,-10.9 -0.7,-2.4 -1.8,-7 -1.8,-7 0.7,-1.6 0.9,-2.4 -0.4,-3.7 0.1,0 -2.9,-0.8 -6,-1.1 -2.9,-0.2 -5.9,0.1 -5.9,0 -0.3,-0.7 9.9,-0.1 10.7,0.4 0.7,0.4 1.1,-1.2 1.1,-1.6 -0.1,-2.9 -0.3,-7.9 -0.1,-10.6 0.4,-3.9 1.3,-7.9 2.9,-11.9 -1.4,0.5 -3.1,0.1 -4.3,-0.4 2.7,0.2 7.3,-0.1 7.9,-2.9 0.2,-1 -1.3,-2.9 -1.3,-2.9 -1.3,1.3 -2.9,0.9 -4.2,0.6 1.5,0.6 2.7,-0.1 3.9,-1.2 0,0 6,-12.3 10.9,-18.4 15.6,-18.2 34,-28.7 49.3,-45.2 3.4,-3.7 7.2,-9.2 7.2,-9.2 -13.5,4.1 -19.1,-3 -28,-10.1 0,0 -2.8,5.6 -4.4,8.3 -1.6,2.7 -3,4.8 -4.9,8 -1.9,3.2 -3.3,6.4 -6.5,11.2 -3.2,4.8 -9.5,12.2 -13.4,17.2 -3.8,5 -7,8.7 -9.6,12.8 -5.4,11.8 -12,21.3 -20.1,30.8 -2.1,2.5 -4.3,4.5 -5.2,6.4 -1.1,2.1 -1.1,4.5 -1.1,4.5 l 0,0 z"
           style="fill:#a05a2c;stroke:#552200;stroke-width:1.39999998" />
        <path
           id="path3362"
           sodipodi:nodetypes="ccczzzcccczzzccc"
           inkscape:connector-curvature="0"
           class="st17"
           d="m -62.6,-104 c 11,-9.8 9.2,-10.1 8.9,-24.1 -0.1,-3 1.2,-8.1 1.2,-8.1 0,0 9.6,-2.3 14.6,-2.7 5.1,-0.4 9.7,-0.4 14.2,0 4.5,0.4 9.7,1.2 12.8,2.1 3.1,0.8 6,2.3 6,2.3 0,0 -1,8.4 -1.4,11.8 -4.8,15.6 3.3,17.8 6.2,28.3 0.5,1.9 0.6,7.6 0.6,7.6 0,0 -6.7,3.3 -13.6,4.3 -6.9,1 -18.9,1.1 -26,0.4 -7.1,-0.7 -11.6,-1.8 -16.5,-3.5 -4.9,-1.7 -13,-6.2 -13,-6.2 l -2.7,-2.5 c 0.1,0 3,-5 8.7,-9.7 l 0,0 z"
           style="fill:#ffe6d5;stroke:#d38d5f;stroke-width:1.39999998" />
        <path
           id="path4172"
           sodipodi:nodetypes="zzcczcccccz"
           inkscape:connector-curvature="0"
           class="st28"
           d="m -11.6,-96.4 c 1.6,-0.1 5.4,-0.9 7.2,-1.4 1.9,-0.5 4,-1.2 4,-1.2 l -1,-1.7 c 0,0 2,-0.2 3,0 1,0.2 2.1,0.2 3,1 2.4,3 2.4,9.5 1.7,13 -0.5,1.1 -1.1,1.7 -2.2,2.3 -6.6,2.1 -13.1,2.4 -19.9,1.7 1.8,-4.6 2.7,-9 1.9,-13.9 0,0.1 0.7,0.3 2.3,0.2 l 0,0 z"
           style="fill:#a05a2c;stroke:#552200;stroke-width:1.39999998" />
        <path
           id="path4177"
           inkscape:connector-curvature="0"
           class="st69"
           d="m 14.9,-45.9 -10.3,-0.4 8.3,-8.7 2,9.1 z"
           style="fill:#445500" />
        <path
           id="path4175"
           sodipodi:nodetypes="cczzcczc"
           inkscape:connector-curvature="0"
           class="st68"
           d="m 12.3,-56 c 2.5,-5.5 3.9,-6.6 5.1,-9.5 0,0 3.5,20 8.7,29.7 5.2,9.7 16.3,17.3 21.4,26.1 5.1,8.8 10.6,21.3 2.7,31 C 42.6,28.7 27,28 17.2,23.2 41,13.2 34.2,-7.9 25.7,-22.4 17.2,-36.8 15.5,-45.9 12.3,-56 Z"
           style="fill:#88aa00;stroke:#445500;stroke-width:1.39999998" />
        <path
           id="path3389"
           sodipodi:nodetypes="ccccccczccccccccccccc"
           inkscape:connector-curvature="0"
           class="st17"
           d="m -28.7,-85.3 c 0,0 14.7,-6.8 20.1,-7.8 8.4,-1.8 16.3,-1.9 22.1,4.3 7.5,8.9 5.5,25.4 -1.8,33.7 -1,1.1 -3.5,3.1 -3.5,3.1 1.6,0 2.9,-1.9 3.9,-2.7 C 9,-45.4 6,-35 0.8,-25.9 c 0,0 -9.8,3.2 -17.1,-0.6 -7.3,-3.8 -12.6,-11.8 -12.6,-11.8 l 5.7,-14.8 c 2,-5.4 5.3,-9.9 9.2,-13.7 1.4,-1.4 3.5,-3.2 3.5,-3.2 l 2.8,5.9 c -1.8,-4.9 -2.2,-8.8 -0.5,-13.8 l -0.2,0.1 -1,1.7 -0.3,7.4 c -0.8,-2.7 -0.4,-5.7 -0.5,-8.5 l -0.5,6.2 c -5.9,5.8 -10.4,11.2 -13.8,18.8 -7,-6.9 -9.6,-17.2 -4.2,-33.1 l 0,0 z"
           style="fill:#ffe6d5;stroke:#d38d5f;stroke-width:1.39999998" />
        <g
           id="g4725"
           transform="translate(-115.36098,-40.860868)">
          <path
             id="path5516"
             sodipodi:nodetypes="ccccc"
             inkscape:connector-curvature="0"
             class="st8"
             d="m 107.5,91.2 -4,0.1 -4.8,-55.9 3.6,-0.3 5.2,56.1 z"
             style="fill:#800000;stroke:#550000" />
          <path
             id="path5500"
             sodipodi:nodetypes="ccccc"
             inkscape:connector-curvature="0"
             class="st62"
             d="m 95.3,63.3 -0.4,-31.5 4.5,1.9 0.1,29.4 -4.2,0.2 z"
             style="fill:#d40000;stroke:#550000" />
          <path
             id="path5504"
             inkscape:connector-curvature="0"
             class="st33"
             d="m 94.7,61.6 5,0.5 2.7,5.2 -10.8,-1.3 3.1,-4.4 z"
             style="fill:#ffcc00" />
          <path
             id="path5506"
             sodipodi:nodetypes="cccccccccccc"
             inkscape:connector-curvature="0"
             class="st62"
             d="m 94.2,70.4 c -1.2,4.3 -3.8,8.7 -7.1,10.9 l 4,2.4 c 1.7,-1.3 2.9,-3.6 3.9,-6 -0.3,3.7 -1.1,6.8 -3.3,9.8 l 4.5,2.1 c 2.2,-3.3 2.4,-6.7 2.5,-10.7 1,3 1.7,5.6 0.6,8.6 l 4.1,-0.6 c 1.4,-4.6 -0.7,-8.2 -3.2,-12.4 l -1.3,-3.6 -4.7,-0.5 z"
             style="fill:#d40000;stroke:#550000" />
          <path
             id="path5508"
             sodipodi:nodetypes="ccccc"
             inkscape:connector-curvature="0"
             class="st1"
             d="m 91.4,65.8 11.2,1.5 -3.4,4.2 L 94,71 91.4,65.8 Z"
             style="fill:#aa8800" />
          <path
             id="path5510"
             inkscape:connector-curvature="0"
             class="st33"
             d="m 108.3,90.4 -5.1,0.3 -2.9,5.1 10.9,-0.9 -2.9,-4.5 z"
             style="fill:#ffcc00" />
          <path
             id="path5512"
             sodipodi:nodetypes="czccccccccccczcc"
             inkscape:connector-curvature="0"
             class="st43"
             d="m 108.2,99.2 c 0,0 2.9,4.9 4.4,6.9 1.5,2 4.6,5 4.6,5 l -2.3,2.4 -4.5,-7.3 3.1,9.9 -3.6,0.9 -2.9,-9.4 0.2,9.1 -4,-0.5 0.8,-8.9 -5,6.3 -4.2,-3.7 c 0,0 4.6,-2.7 5.8,-4.6 1.3,-1.9 2.8,-5.7 2.8,-5.7 l 4.8,-0.4 z"
             style="fill:#aa0000;stroke:#550000" />
          <path
             id="path5514"
             sodipodi:nodetypes="ccccc"
             inkscape:connector-curvature="0"
             class="st1"
             d="m 111.4,94.7 -11.2,1 3.2,4.4 5.2,-0.3 2.8,-5.1 z"
             style="fill:#aa8800" />
        </g>
        <path
           id="path4937"
           sodipodi:nodetypes="cccccccccccscscccccccccccccccccccc"
           inkscape:connector-curvature="0"
           class="st65"
           d="m -35.5,-11.5 c -9.2,14.1 -20.3,25 -29,39.2 -3.8,6.7 -6.2,14.2 -10.7,20.9 -4.5,7.4 -11.5,13.9 -15.8,22.1 -0.5,1.4 -0.7,4.1 -0.7,5.7 0,0.7 -0.7,1.1 0.2,1.1 1,-0.3 2.5,-0.8 3.7,-1 l 3.6,-0.3 c 0,0 -0.7,-2 -0.5,-3.9 1.1,-8.4 6.4,-14.2 11.2,-20.4 0.2,-1.4 -0.6,-0.8 -0.6,-1.4 0,-0.7 0.2,-1.7 0.8,-2.4 0.6,-0.7 1.2,0.3 2.7,-1.3 4,-4.4 3.9,-12 9.6,-19.3 5.7,-7.2 15.7,-17.4 23.7,-26.3 3.4,-3.8 7.8,-9.2 7.8,-9.2 l -3.7,-1.8 -2.3,-1.7 z m -51.2,89.3 c -1.5,0.3 -2.9,0.5 -4.1,1.6 -0.1,0.7 0,1.3 0.4,1.9 1.4,-0.6 2.7,-1 4.1,-1.4 -1,-0.9 -0.9,-1.5 -0.4,-2.1 z m 2.6,3.6 c 0,0 -2.2,0.2 -3.2,0.5 -1.4,0.4 -2.1,0.4 -2.3,1.9 0,0.5 0.4,1.1 0.6,1.7 1.6,4.1 3.4,8.2 6.4,11.5 0.5,0.5 1.3,1.1 1.9,1.5 -0.4,-0.4 -0.5,-0.8 -0.1,-1.6 -3.8,-5.3 -7,-10.4 -3.3,-15.5 z m 3.3,17 c 0.1,0.1 0.3,0.3 0.5,0.4 0,0 -0.3,-0.2 -0.5,-0.4 z"
           style="fill:#784421" />
        <path
           id="path3385"
           sodipodi:nodetypes="csssscsscccc"
           inkscape:connector-curvature="0"
           class="st3"
           d="m -30.7,-46.1 c 0.9,-0.6 3.5,-0.3 2,1.3 -1,1.1 -0.8,0.7 -1,1.1 -0.3,0.6 -0.3,1.2 0,1.6 6.7,10.3 16.9,19.3 31.2,14.2 0.5,-0.2 1.9,-3.4 1.9,-3.4 0.6,-1.5 1.8,1 1.4,2.1 -0.2,0.4 -2.1,4.3 -2.2,4.8 -3.2,8.4 -3.8,10.1 -8.2,17 -25.4,6.9 -40,-10.6 -46.4,-21 5.6,-9.5 11.8,-12 21.3,-17.7 l 0,0 z"
           style="fill:#784421;stroke:#552200;stroke-width:1.39999998" />
        <path
           id="path3364"
           sodipodi:nodetypes="ccccccccczzzzccc"
           inkscape:connector-curvature="0"
           class="st22"
           d="m -101.6,35.4 c -3.8,3 -7.7,5.8 -12.2,7.8 l 0,11.1 6,-0.8 c 0,0 -2.2,5.7 -3.1,8.5 -3.5,11.2 -6.8,23.9 0.4,34.5 0.9,1.3 0.5,1.3 2.3,2.1 4.7,1.8 8.5,1.8 13.4,0.6 1.9,-2.1 0.5,-3.6 0.4,-5.8 0,0 -8,1.4 -10.3,0.6 -2.3,-0.8 -2,-0.4 -3.3,-2.9 -1.3,-2.5 -1.9,-8 -1.7,-12.6 0.3,-4.6 2.6,-10 3.7,-14.2 1.1,-4.2 3.1,-10.9 3.1,-10.9 l 0.8,-9.3 0.5,-8.7 z"
           style="fill:#803300;stroke:#552200;stroke-width:1.39999998" />
        <path
           id="path3353"
           sodipodi:nodetypes="ccccscscsccszzccccczzzczcc"
           inkscape:connector-curvature="0"
           class="st28"
           d="m -24,-48.7 c -1.9,9.7 -3.4,16.1 -8.7,30.6 -5.3,14.5 -27,34.1 -33.4,48.1 -6.4,14 -7.3,16.1 -13.2,24.3 -5.6,7.8 -11.5,12.6 -12.9,21.6 -0.1,0.4 -0.1,0.9 -0.2,1.3 0.2,-2.1 -13.4,-3.2 -12.4,-1.8 0,0 13.2,-0.3 11.9,2.9 -6.6,-0.3 -13.4,1.1 -13.5,1.7 0,0.2 14.2,-2 13.2,0 -1.7,5.3 2,14.4 -0.9,17 -2.8,2.7 -13.7,0.6 -14.5,-0.2 -1.2,-1.3 -4.6,-11.2 -3.1,-21.4 1.5,-10.2 6,-15 6.8,-22.6 0.8,-7.7 -0.2,-10.5 1.2,-14.1 1.9,-4.4 7.1,-8.3 12.3,-7.3 0.8,3 2.6,6.1 4.5,9.1 -1.3,-3.2 -4.7,-7 -4,-9.5 0.5,-0.9 1.8,-1.4 2.7,-1.8 2.3,3.7 5.2,4.8 8.1,6 -3.3,-1.2 -6.7,-2.4 -7.7,-6.4 l 1,-2.2 c 15.7,-24.9 17.8,-63.3 30.5,-83.9 1.7,3.4 7.2,7 14.1,9.2 7.1,2.1 12.9,1.4 18.2,-0.6 l 0,0 z"
           style="fill:#a05a2c;stroke:#552200;stroke-width:1.39999998" />
        <path
           id="path3387"
           sodipodi:nodetypes="cccccccccccccccccccccczcccc"
           inkscape:connector-curvature="0"
           class="st17"
           d="m -69.5,-81 c 11,-9.9 30.9,-26.9 44.3,-27.2 16.9,0.6 16.5,21.7 8.8,32 -1.2,2.2 -3.2,3.2 -5.1,4.8 1.2,-0.2 2.2,-0.6 3.1,-1.5 -0.5,7.8 -1.8,15.6 -3.9,23.2 -12.2,5.7 -27.8,0.1 -34.3,-8 3.3,-7.9 7.7,-17.4 13.3,-23.8 0.8,1.2 1.3,2.6 2.5,5.2 -2.1,-4.3 -1.2,-8.4 -0.3,-13.2 l -1.8,5.8 0.4,2.7 -0.6,-1.8 -0.1,0.4 c -0.7,0.1 -0.6,-1.4 -1.3,-3.2 0.3,1.6 -0.1,2.2 0.6,3.8 l -0.7,0.8 c -4.5,6.3 -8,13.8 -10.7,20.4 -0.9,4 -0.9,3.5 -1.7,4.3 -2.2,4.7 -4.2,9.4 -6.2,14.1 -7,-4.5 -23.6,-22.2 -11.6,-43.8 3.5,-0.8 6.4,-0.3 9.7,0.7 0,0 -3.3,3.2 -4.5,3.7 -1.2,0.5 -2.3,0.3 -2.3,0.3 l 1.7,0.4 -1.3,2.1 2,-2.2 z"
           style="fill:#ffe6d5;stroke:#d38d5f;stroke-width:1.39999998" />
        <path
           id="path4672"
           sodipodi:nodetypes="ccsccc"
           inkscape:connector-curvature="0"
           class="st7"
           d="m -23.1,-70.5 c 1.4,-0.2 2.6,-0.5 4,-1.2 -0.1,1.6 -0.1,2.5 -0.2,4 -0.6,5.5 -1.7,12 -3.2,17.5 -3.1,1.9 -5.2,1.8 -8.7,2.3 5.1,-7.6 6.4,-15.3 8.1,-22.6 l 0,0 z"
           style="fill:#e9c6af" />
        <path
           id="path4676"
           sodipodi:nodetypes="cccccccccccc"
           inkscape:connector-curvature="0"
           class="st7"
           d="m -10.7,-69.2 c 0.9,1.8 1.8,3.5 2.5,5.4 l 1.1,-0.5 0.6,1.8 c -3.3,2.4 -7.1,7.8 -9,13.8 l 0.9,1.8 c -0.3,5.7 -1.7,10.9 -3.4,16.4 -1.6,-0.8 -3.2,-2.2 -4.7,-3.7 l 1.1,-16.7 0.8,-1.5 c 0.9,-2.6 1.4,-6.8 1.4,-6.8 2.3,-4.1 6.3,-8.1 8.7,-10 l 0,0 z"
           style="fill:#e9c6af" />
        <path
           id="path3351"
           sodipodi:nodetypes="csssscsscccccc"
           inkscape:connector-curvature="0"
           class="st3"
           d="m -57.9,-61.3 c 0.7,-0.8 2.9,-1.3 2.8,0.9 0,0.3 -0.3,0.9 -0.4,1.3 -0.1,0.7 0.1,1.2 0.4,1.5 7.7,9.9 23.1,12.6 32.8,7.9 0.5,-0.2 0.7,-2.3 0.7,-2.3 0.2,-1.6 2,0.4 1.9,1.7 0,0.5 -0.3,2.3 -0.4,2.8 -0.8,9 -2.5,17.3 -4.9,25.1 -10.3,2.9 -21,3 -32.1,-0.2 2.9,-7.6 2.6,-13 3.1,-19 -4.2,4.5 -8.5,8.9 -10.2,15.1 -3.4,-2.8 -6.9,-5.5 -9.9,-8.3 2.8,-10.6 8.7,-18.4 16.2,-26.5 l 0,0 z"
           style="fill:#784421;stroke:#552200;stroke-width:1.39999998" />
        <path
           id="path4167"
           sodipodi:nodetypes="ccczccczzzccccccccczzcccccczzzzczzzzccccccccccccccccczccccccczcccccc"
           inkscape:connector-curvature="0"
           class="st15"
           d="m -54.2,-190.9 -2.3,10.9 c 0,0 -5.5,15.2 -7.4,20.2 -3.4,11.8 -14.6,22.7 -19.3,26.8 -4.7,4.1 -7.2,4.5 -7.2,4.5 l -1.5,-0.3 c -10.8,-4.9 -17.5,-13.2 -22.6,-20.3 -3.2,-4.4 -9.3,-13.7 -12.3,-18.8 -3,-5 -3.9,-9 -5.8,-11.2 -1.9,-2.2 -4.1,-2.7 -4.1,-2.7 5.4,1.7 7.1,1.1 8.5,-0.3 l 1.4,2.1 -1.5,-2 c -4.8,2.1 -10,0.7 -14.2,-3.3 -4.9,-4 -7.3,-8.1 -8.9,-14 -0.5,-1.5 -0.4,-3 -0.2,-4 0.3,-1.2 0.3,-5.1 0.3,-5.1 l -0.7,-3.9 -3.3,-5.3 c 3.4,-2.3 6.1,2 6.9,5 0,0 0.8,2.4 1,3.8 0.3,1.4 0.6,4.6 0.6,4.6 1,0.9 1.6,2.9 1.2,4.2 1.1,-1.3 0.3,-3.3 -0.8,-4.6 0.3,-2.5 1.2,-5.3 1,-7.6 l -1.6,-7 c 0,0 -2.7,-4.1 -2.9,-5 -0.6,-2.2 1.7,-2.8 3.3,-1.7 0.8,0.6 3,4.8 3,4.8 1.2,2.2 2,5.9 2.6,8.6 0.4,3.1 0.2,4.5 0.4,6.7 l 1.2,2.3 -1.1,-2.4 1.3,2.8 -0.8,-2.8 c 0.1,-4.6 5,-5.4 7.1,-2.8 2.1,2.6 0.6,-0.3 1.7,-1.2 2.3,-1.2 3.7,0.7 4,2.7 0.1,0.8 -0.2,1.1 -0.2,2.1 0.5,3.2 1,6.3 3.9,8.1 -4,0.4 -7.6,2.3 -7.6,6.4 -0.1,-3.9 4,-6.2 8.1,-5.8 l 2.5,-0.5 c 1.8,-2 8.6,-4.7 12.4,-2.4 0.9,0.6 1.5,2.3 1.5,2.3 -3.3,0.6 -6.5,1.8 -8.7,3.8 -1,0.9 -2.1,2.3 -2.7,3.2 -0.9,1.9 -1.9,3.1 -3.6,4.5 l -2.2,0.9 -1,0.6 1.5,2.3 -1.3,-2.2 3.1,-1.3 c 5.2,6.1 9.8,13.3 14.9,17.8 5.1,4.6 9.3,7 13.5,11.2 1.2,1.2 2,2.4 2,2.4 l 0.9,3 -0.6,-3.4 c 0.9,-1.9 2.3,-3.7 3.5,-5.1 10,-10.9 5.8,-33.4 16.3,-43.7 4.5,-4 10,-3.8 15.4,-2.7 1.3,0.2 2.9,0.5 3.9,0.5 1,0 1.9,-0.2 1.9,-0.2 0,0 0.1,6.6 -0.1,9.5 -0.5,5.1 -1.4,10.3 -3.8,14.5 -1.1,1.9 -4.2,5 -4.2,5 1.5,-3 2,-6.1 2.6,-9.3 l 1.1,-5.2 z"
           style="fill:#ffe6d5;stroke:#d38d5f;stroke-width:1.34549999" />
        <path
           id="path4656"
           sodipodi:nodetypes="cccccc"
           inkscape:connector-curvature="0"
           class="st7"
           d="m -131.7,-190.5 c -3,-2.2 -12.1,-2.5 -11.7,3.8 -3.7,-3 -4.6,-5.2 -5.2,-7.9 7.5,-2 15,-4.1 22.5,-6.2 -0.2,1.5 0.2,2.6 1.2,3.7 -3.6,0.3 -6.8,2.7 -6.8,6.6 z"
           style="fill:#e9c6af" />
        <path
           id="path4666"
           sodipodi:nodetypes="cccc"
           inkscape:connector-curvature="0"
           class="st7"
           d="m -53.8,-190.8 c 0.3,1.1 0,3.2 1.7,4 -1.1,3.3 -1.6,4.9 -4.1,7.8 l 2.4,-11.8 z"
           style="fill:#e9c6af" />
        <path
           id="path4768"
           sodipodi:nodetypes="cccccccczzccccccczzccccccc"
           inkscape:connector-curvature="0"
           class="st7"
           d="m -49.8,-120.8 -1.2,5 c 2.1,0.7 4.7,1.8 7.2,0.6 2.3,-2 2.2,-3.6 3.1,-5.4 l 1.9,-7.7 3.9,0.8 1.6,0.1 -1.4,12 c 0,0 4.1,0.7 6,0.7 1.9,0 3.9,-0.6 5.1,-1 1.2,-0.4 2.5,-1 2.5,-1 l 0.4,-10.8 4.8,0.3 1,11.3 c 1.8,0.8 3.1,0.7 4.4,0.8 0,0 0.3,5.3 1.2,7.3 1.5,3.9 4,6.4 7.2,8.9 0,0 -3.7,-5.9 -4.4,-7.4 -0.7,-1.5 -0.9,-2.3 -1.2,-3.6 -0.3,-1.3 -0.6,-2.6 -0.7,-4 1,-7 2.1,-14 3.1,-21 l -16.5,0.6 -13.5,-0.4 -12.3,-0.6 -0.9,7 -1.3,7.5 z"
           style="fill:#e9c6af" />
        <path
           id="path3352"
           sodipodi:nodetypes="ccccccsccccccccccccccccccccccccc"
           inkscape:connector-curvature="0"
           class="st68"
           d="m -6.6,-213.3 c -1.7,0.1 -4,0.5 -4,0.5 0,0 1.9,1.7 2.9,2.9 11,13.9 9,31.3 -9.8,35.9 -1.8,0.4 -3.6,0.7 -5.8,0.6 -16.5,-1.3 -21.2,-17 -21.4,-32.9 0,0 -2.8,-0.4 -3.8,-0.3 -1.1,0.1 -2.6,0.7 -2.6,0.7 l 0.1,2.5 c 0,0 0.9,6.5 1.2,9.8 -1.4,10.9 -3.7,13 -9.7,22.5 -2.3,6.7 -0.2,14.7 5,19.7 1.7,9.9 1.7,19.2 -1,28.9 3.8,2.4 6.2,4 11.1,3.1 2.4,-4.5 2.9,-9.1 3.7,-13.6 l 4.5,0.8 -2.1,11.6 c 5.1,2.1 10,2.5 14.6,0.7 l 0,-11.3 5.4,-0.4 0.2,11.1 c 7.6,1.9 10.9,0.2 14.3,-1.4 l -2.4,-11.2 2.5,-0.8 3.7,11.8 c 5.1,0.8 5.7,-0.3 7,-2.1 0,0 -2.6,-6.4 -3.2,-10 -0.7,-5.8 -0.4,-11.2 2,-16 8.8,-3.2 13.6,-11 11.7,-21.7 -1.9,-7.6 -7,-8.4 -10.5,-15.7 -3.2,-6.6 -3.4,-22.2 -8.2,-24.2 -1.4,-0.8 -3.7,-1.5 -5.4,-1.5 z"
           style="fill:#88aa00;stroke:#445500;stroke-width:1.39999998" />
        <path
           id="path4168"
           sodipodi:nodetypes="cscccccc"
           inkscape:connector-curvature="0"
           class="st28"
           d="m -65,-86.3 c -2.4,-0.5 -5.9,-0.8 -8.2,-1.9 -2.3,-1.1 -3.6,-1 -3.7,-4.4 0.1,-4.8 3,-9.8 6.5,-12.3 3.4,-1.7 6.2,-2.1 9.9,-2.3 l -3.3,3.2 c 4,3.9 7.1,5.4 12,7.1 -5.2,3.6 -7.9,6 -13.2,10.6 l 0,0 z"
           style="fill:#a05a2c;stroke:#552200;stroke-width:1.39999998" />
        <path
           id="path4170"
           sodipodi:nodetypes="ccssccccccc"
           inkscape:connector-curvature="0"
           class="st44"
           d="m -67.1,-104.5 c 1.5,-1.4 5.2,-1.2 6.3,1.4 0,0 0.2,0.3 -0.1,0.5 -0.1,0.1 -0.5,0 -0.7,0.1 -0.6,0.5 -1.6,1.4 -2.3,2.2 -2.7,3.4 -4.7,7.1 -5.4,11.4 -0.2,1.4 -0.1,2.5 -0.1,2.5 l 1.5,0.4 c -0.5,2.1 -7.8,1.6 -7.4,-1.1 1.3,-7 3.2,-12.5 8.2,-17.4 l 0,0 z"
           style="fill:#784421;stroke:#502d16" />
        <circle
           id="circle5474"
           class="st59"
           cx="-93.699997"
           cy="-210.89999"
           r="2"
           style="fill:#483737;stroke:#241c1c;stroke-width:1.76559997" />
        <path
           id="path4680"
           sodipodi:nodetypes="ccssczcccccc"
           inkscape:connector-curvature="0"
           class="st41"
           d="m -54.3,-151.8 c 10.3,9.8 25.7,2 29.4,-5.8 0.6,-1.5 2.6,-4.2 3.9,-4.3 1.6,-0.1 3.3,3 4.2,4 3.9,4.4 10.1,10.7 22.1,7.2 0,0 -1.4,3.3 -1.7,4.9 -0.3,1.6 -0.7,4.9 -0.7,4.9 0,0 -4.9,-3.4 -8,-4.4 -14.9,-4.7 -29.1,2.9 -43.7,4 -1.5,0.1 -4.2,0 -4.2,0 l -0.4,-5.3 -0.9,-5.2 z"
           style="fill:#677821" />
        <path
           id="path4678"
           sodipodi:nodetypes="ccccccc"
           inkscape:connector-curvature="0"
           class="st7"
           d="m -19.4,-174.3 c 0.2,-4.7 2.9,-7.8 5.4,-8.9 -2.7,0.8 -4.9,2.6 -6.4,4.5 -0.8,1.1 -1.5,1.3 -2.4,0.5 -2.4,-2.4 -6.2,-4.9 -8.5,-4.9 4.1,2.8 6.1,4.7 7.5,9.2 2.5,0.2 2.1,0 4.4,-0.4 l 0,0 z"
           style="fill:#e9c6af" />
        <path
           id="path4682"
           sodipodi:nodetypes="cscc"
           inkscape:connector-curvature="0"
           class="st63"
           d="m 14.7,-176.7 c 4.7,6.9 2.7,17.3 -2.9,22.4 -7.1,6.3 -20.8,9.8 -30.6,-5.4 13.6,9.4 36.2,4.4 33.5,-17 l 0,0 z"
           style="fill:#719021" />
        <path
           id="path4684"
           sodipodi:nodetypes="cscc"
           inkscape:connector-curvature="0"
           class="st63"
           d="m -59.8,-164.5 c -0.4,8.3 6.9,16.1 14.4,17.5 9.4,1.6 27.1,-4.5 22.1,-25.1 -2.6,21.6 -27.4,27.2 -36.5,7.6 l 0,0 z"
           style="fill:#719021" />
        <g
           id="g4530">
          <path
             id="path4658"
             sodipodi:nodetypes="ccccccccccc"
             inkscape:connector-curvature="0"
             class="st7"
             d="m -145.7,-204.8 0.7,-3.5 c 1.8,0.3 2.7,-0.1 3.8,-1.5 0.2,2.6 0.1,3.7 0.2,4.3 0.3,0.7 0.7,0.8 1.3,2.6 l 1,-0.3 -0.6,1.5 -3.5,1 -0.8,-0.8 -0.8,0.3 c -0.1,-1.4 -0.6,-2.7 -1.3,-3.6 l 0,0 z"
             style="fill:#e9c6af" />
          <g
             id="g4522"
             transform="translate(-115.36098,-40.860868)">
            <path
               id="path5765"
               sodipodi:nodetypes="ccccc"
               inkscape:connector-curvature="0"
               class="st4"
               d="m -70.8,-148.4 159.2,-42.4 c 2.3,1.9 2.4,3.2 1.4,6.1 l -159.3,42.8 c -1.7,-1.9 -2.7,-3.7 -1.3,-6.5 z"
               style="fill:#483737;stroke:#241c1c" />
            <path
               id="path5437"
               sodipodi:nodetypes="ccccc"
               inkscape:connector-curvature="0"
               class="st61"
               d="m -5.1,-166.9 c -1.4,2.8 0.3,6.5 2.2,7.7 l 12.6,-3.4 c 1.2,-3.3 -0.1,-6.1 -2,-7.7 l -12.8,3.4 z"
               style="fill:#6c5353;stroke:#241c1c" />
            <path
               id="path5441"
               sodipodi:nodetypes="ccccc"
               inkscape:connector-curvature="0"
               class="st61"
               d="m 31.9,-176.6 c -1.4,2.8 0.3,6.5 2.2,7.7 l 12.6,-3.4 c 1.2,-3.3 -0.1,-6.1 -2,-7.7 l -12.8,3.4 z"
               style="fill:#6c5353;stroke:#241c1c" />
            <path
               id="path3359"
               sodipodi:nodetypes="czzzcczcc"
               inkscape:connector-curvature="0"
               class="st32"
               d="m 70.5,-186.4 c 0,0 2.6,-2.8 3.8,-3.1 1.2,-0.3 1.2,0.3 2,0.1 0.8,-0.2 1.1,-0.9 2.5,-1.3 1.4,-0.4 5.8,0.7 5.8,0.7 l -5.9,1.5 c 0,0 -1.2,0.9 -1.9,1 -0.7,0.1 -2,-0.1 -2,-0.1 l -4.3,1.2 z"
               style="fill:#ff5555" />
            <path
               id="path5425"
               sodipodi:nodetypes="ccccc"
               inkscape:connector-curvature="0"
               class="st61"
               d="m -41,-157.1 c -1.4,2.8 0.3,6.5 2.2,7.7 l 12.6,-3.4 c 1.2,-3.3 -0.1,-6.1 -2,-7.7 l -12.8,3.4 z"
               style="fill:#6c5353;stroke:#241c1c" />
            <path
               id="path5427"
               sodipodi:nodetypes="ccccc"
               inkscape:connector-curvature="0"
               class="st61"
               d="m -23,-162 c -1.4,2.8 0.3,6.5 2.2,7.7 l 12.6,-3.4 c 1.2,-3.3 -0.1,-6.1 -2,-7.7 L -23,-162 Z"
               style="fill:#6c5353;stroke:#241c1c" />
          </g>
          <path
             id="path5447"
             sodipodi:nodetypes="czzccccccccc"
             inkscape:connector-curvature="0"
             class="st17"
             d="m -139.7,-207.5 c 0.5,-0.4 1.1,-3.8 2.3,-4.2 1.2,-0.4 1.6,-0.8 3.4,0.1 1.7,0.9 4.1,6.9 5.6,8.1 -0.1,2.5 0.4,4.4 1,6.6 0.1,1.2 -1.5,1.3 -1.5,1.3 -2.4,-0.4 -4.1,-3.3 -3.7,-5.8 l 0.3,-1.5 0.7,-0.6 c -2,2 -3,0.6 -3.6,-1.1 l -0.6,-2.7 c 0,1.2 -0.5,2.4 -0.2,3.5"
             style="fill:#ffe6d5;stroke:#d38d5f;stroke-width:1.39999998" />
          <path
             id="path5518"
             sodipodi:nodetypes="cccccczcsc"
             inkscape:connector-curvature="0"
             class="st17"
             d="m -132.2,-210.5 c 1.1,-1.5 3.7,-1 4.5,-0.2 l 3,3.7 0.6,3.6 -0.4,3.6 c -0.2,1.2 -0.6,1.6 -1.7,1.8 -0.6,-0.2 -1,-0.5 -1.4,-1.6 -0.4,-1 -1.1,-5.8 -1.1,-5.8 -0.9,-0.8 -1.4,-1.4 -2,-2.3 -0.6,-1.1 -1,-1.7 -1.5,-2.8 l 0,0 z"
             style="fill:#ffe6d5;stroke:#d38d5f;stroke-width:1.39999998" />
          <path
             id="path4660"
             sodipodi:nodetypes="ccccczcc"
             inkscape:connector-curvature="0"
             class="st7"
             d="m -136.5,-203.8 -2.1,0.6 -0.8,-2.6 c 0,-0.4 0,-0.7 0.2,-1.3 0.5,-1 0.9,-2 1.3,-3.1 0,0 0,1.6 0.4,2 0.4,0.4 1.2,0.7 1.2,0.7 -0.1,1.2 -0.3,2.4 -0.2,3.7 l 0,0 z"
             style="fill:#e9c6af" />
          <path
             id="path4662"
             sodipodi:nodetypes="cccccccc"
             inkscape:connector-curvature="0"
             class="st7"
             d="m -147.6,-207.6 c 0,0 -0.8,0.8 -1.5,0.9 l 0.4,1.4 c 0.1,0.8 -0.2,1.6 -0.9,2.3 1.6,-0.1 1.6,1.5 1,2.6 l 2.8,-0.7 c 0,-0.9 -0.4,-1.8 -1.2,-2.7 -0.2,-1.8 -0.3,-2.1 -0.6,-3.8 l 0,0 z"
             style="fill:#e9c6af" />
        </g>
        <path
           id="path4165"
           sodipodi:nodetypes="ccccczccccccczccccccccsscczzcsccccssscccssczzzzczczzczczcc"
           inkscape:connector-curvature="0"
           class="st51"
           d="m 5.1,-197.6 -3.5,1.8 c -10.1,7.7 -18.6,17.3 -26.9,26 -2.1,2.2 -7.6,6 -7.6,6 -1.7,-1 -2.8,-1.8 -3.9,-2.6 -3.8,-2.7 -14.6,-8.3 -20.8,-13.1 -6.2,-4.8 -15.4,-15.1 -15.4,-15.1 l -3,-3.4 c 0,0 1.2,-0.9 1.6,-1.6 2,-2.8 2.7,-6.7 5.5,-8.8 1.2,-0.8 3.2,-1.1 4.3,-1.6 1.1,-0.5 1.9,-0.8 1.9,-0.8 0,0 -0.5,-1.3 -1.2,-1.9 -3,-2.2 -7,-0.5 -10,1.1 -1.2,0.6 -2.4,1.6 -3.7,1.5 -3.6,-0.3 -3.4,-3.4 -5.8,-5.9 -0.9,-1.1 -2.1,-2.6 -3.1,-3.2 -1.2,-0.7 -4.5,-1 -5.2,1.1 -0.1,0.7 1.4,2.3 1.4,2.3 0,0 -1.3,-1.7 -1.9,-2.3 -1.4,-1.3 -4.3,-1.9 -5.4,0.4 0.3,0.6 3.2,3.4 3.1,3.4 -2,-1.6 -3.1,-3.4 -5.7,-5 -0.5,-0.3 -0.5,-0.4 -0.9,-0.9 -1.7,-2.1 -4.3,-3.1 -4.5,-3.4 l -1.5,-1.3 c -3.5,0.5 -4.5,1.7 -7.7,0 -0.9,0.8 -0.6,1.8 -0.3,2.3 2.3,2.3 3.1,1.7 6.5,1.8 0.3,0.3 0.8,0.6 1,0.9 0.6,1 2.2,2 3.8,3.2 1.4,2.3 3.9,3.8 5.7,5 l -2.1,-1.1 -1.1,-0.5 c -2.5,-0.9 -4.1,-2.2 -6,-2.7 -1.9,-0.5 -3.1,1.6 -4.8,2.1 -1.8,0.5 -3.7,0.3 -3.7,1.7 0,1.4 2.4,1.9 3.7,1.9 4.2,-0.1 3.8,-3.2 8,0.4 1.4,0.9 2.9,1.2 2.9,1.2 0,0 0.5,3.7 2.2,6.3 1.7,2.5 6.6,8.6 8.8,9.8 1.5,0.8 4.6,4 4.6,4 0,0 6,11.8 9.9,17.4 3.9,5.6 8.7,11.4 13.4,15.9 4.7,4.5 10.3,8.3 14.7,11.2 4.4,2.9 9.1,5.5 11.6,6.3 2.5,0.8 2.6,0.3 2.6,0.3 0,0 1,-0.2 3,-1.3 2,-1.1 8.5,-6 8.5,-6 9.2,-7.4 16,-11.3 21.1,-16.5 5.2,-5.2 13.3,-14.6 15,-17.1 1.8,-2.5 5.6,-6.7 5.6,-6.7 5.1,-5.6 5,-12.7 1.7,-19.1 -3.4,-6.4 -13,-8.7 -20.3,-6.6 0,0 2,3.5 2.4,6.8 0.3,3.2 1.5,6.4 1.5,6.4 l 0,0 z"
           style="fill:#ffe6d5;stroke:#d38d5f;stroke-width:1.39100003" />
        <path
           id="path4664"
           sodipodi:nodetypes="cccccc"
           inkscape:connector-curvature="0"
           class="st7"
           d="m -49.9,-173.7 c -7.2,-1.9 -18.5,5.9 -16.5,14 6.9,7.4 15.6,13.2 23.6,18 2.5,1.5 5.1,2.9 5.1,2.9 -7.5,-6.9 -17.7,-13.1 -22.9,-20.1 -4.8,-6.9 3.5,-14.6 10.7,-14.8 l 0,0 z"
           style="fill:#e9c6af" />
        <path
           id="path4668"
           sodipodi:nodetypes="czccccc"
           inkscape:connector-curvature="0"
           class="st7"
           d="m -97.3,-159.2 c -5.6,1.1 -13.5,5.1 -11.8,10.3 1.7,5.2 9.7,14 17.3,19.6 0,0 -4.7,-2.2 -6.8,-3.6 -6.8,-4.4 -11.2,-10.6 -16,-17 0.8,-7.7 9.6,-10.6 16.6,-10 l 0.7,0.7 z"
           style="fill:#e9c6af" />
        <g
           id="g4714"
           transform="translate(-115.36098,-40.860868)">
          <path
             id="path4659"
             sodipodi:nodetypes="ccccc"
             inkscape:connector-curvature="0"
             class="st30"
             d="m 19,-119.2 c -13.3,-0.8 -18.2,5.8 -19,10 l -5.9,-8.3 c 3,-5.1 13.4,-8.1 18.9,-7.1 l 6,5.4 z"
             style="fill:#d40000;stroke:#552200;stroke-width:1.36300004" />
          <path
             id="path4661"
             sodipodi:nodetypes="ccccc"
             inkscape:connector-curvature="0"
             class="st30"
             d="m 13.4,-124.4 c -12.2,1.5 -12.3,12.4 -13.1,16.6 -1.8,-1.5 -3.5,-2.5 -4.5,-6.3 0,-6.7 5.3,-16.4 10.8,-15.4 l 6.8,5.1 z"
             style="fill:#d40000;stroke:#552200;stroke-width:1.36300004" />
          <path
             id="path4663"
             sodipodi:nodetypes="ccccc"
             inkscape:connector-curvature="0"
             class="st19"
             d="m 10.4,-126.3 c -13.3,-0.8 -17.2,2.2 -18,6.4 l -3.6,-5.3 c 3,-5.1 10.4,-7.1 15.9,-6.2 l 5.7,5.1 z"
             style="fill:#aa0000;stroke:#552200;stroke-width:1.46300006" />
          <path
             id="path4665"
             sodipodi:nodetypes="ccccc"
             inkscape:connector-curvature="0"
             class="st30"
             d="m 4.1,-131.5 c -5,4.6 -4.1,5.5 -9.4,15.4 -1.1,-1 -1.8,-2.8 -2.4,-4.2 3.2,-6.2 2.6,-18 8.1,-17.1 l 3.7,5.9 z"
             style="fill:#d40000;stroke:#552200;stroke-width:1.36300004" />
          <path
             id="path4667"
             sodipodi:nodetypes="cccccc"
             inkscape:connector-curvature="0"
             class="st30"
             d="m -14.3,-129.1 c -1.4,-8.2 5.2,-12 11.1,-13 1.2,0.9 2.7,2.9 3.3,4.3 -2,0.6 -3.6,1 -5.4,7.3 -2.4,1.5 -5,3.5 -6,5 l -3,-3.6 z"
             style="fill:#d40000;stroke:#552200;stroke-width:1.36300004" />
          <path
             id="path5431"
             sodipodi:nodetypes="csczcc"
             inkscape:connector-curvature="0"
             class="st40"
             d="m -8.3,-127.7 c -2.4,-0.5 -1.6,-2.8 -2.4,-2.9 -1.2,-0.1 -3.5,1.8 -3.3,2.6 0,0 -1,-4.4 3.2,-5.4 4.2,-1 5.3,2.4 5.3,2.4 0.6,2 -1.4,3.3 -2.8,3.3 z"
             style="fill:#ff2a2a;stroke:#552200;stroke-width:1.39999998" />
          <path
             id="path5433"
             sodipodi:nodetypes="cczcc"
             inkscape:connector-curvature="0"
             class="st31"
             d="m -10.8,-130.4 c 1.7,4.7 3.8,3 5.3,0.4 0,0 1,4.4 -3.2,5.4 -4.2,1 -5.3,-2.4 -5.3,-2.4 -0.5,-1.8 1.9,-3.3 3.2,-3.4 z"
             style="fill:#ff5555;stroke:#552200;stroke-width:1.39999998" />
          <path
             id="path4675"
             sodipodi:nodetypes="ccccc"
             inkscape:connector-curvature="0"
             class="st30"
             d="m -14.2,-128.2 c -4.4,-1.3 -7.5,0.8 -9.1,3.3 -2,-3.5 -0.4,-5.2 -0.4,-5.2 2,-2 7,-2.8 11.5,-0.1 -0.7,0.5 -1.3,0.5 -2,2 z"
             style="fill:#d40000;stroke:#552200;stroke-width:1.36300004" />
          <path
             id="path5435"
             sodipodi:nodetypes="ccccc"
             inkscape:connector-curvature="0"
             class="st21"
             d="m -13.4,-125.8 c 1.3,6 -3.4,9.4 -3.9,11.2 -4,-0.4 -4.5,-2.7 -4.5,-2.7 1.5,-0.4 7.3,-4.3 7.9,-11.4 0,1 -0.4,1.5 0.5,2.9 z"
             style="fill:#c83737;stroke:#552200;stroke-width:1.36300004" />
        </g>
        <g
           id="g4692"
           transform="translate(-115.36098,-40.860868)">
          <path
             id="path5737"
             sodipodi:nodetypes="ccccczc"
             inkscape:connector-curvature="0"
             class="st53"
             d="m 45.2,-152.9 c 0,0 -2.4,-1 -4.9,-0.8 -6.3,0.9 -14.9,8.4 -7.7,12.9 -2.9,0.3 -5.3,-1.3 -5.4,-4.5 -0.1,-5.3 6.8,-9.9 11.9,-10.3 1.6,-0.1 3.7,0.1 4.5,0.7 0.7,0.5 1.6,1.1 1.6,2 l 0,0 z"
             style="fill:#a05a2c;stroke:#502d16;stroke-width:1.26069999" />
          <path
             id="path5739"
             sodipodi:nodetypes="cczzzzzczczzzc"
             inkscape:connector-curvature="0"
             class="st23"
             d="m 47.8,-118.4 -17.7,-22.1 c 0,0 -0.4,-2.1 -0.3,-3.5 0.1,-1.4 1.2,-4 2.1,-5 0.9,-1.1 2.1,-2 3.2,-2.7 1.1,-0.7 2.2,-1.1 3.3,-1.4 1.1,-0.3 2.2,-0.5 3.4,-0.5 1.2,0.1 3.4,0.9 3.4,0.9 0,0 5.6,5.9 8.9,8.8 3.3,2.8 10.7,8.2 10.7,8.2 0,0 -4.1,1 -6.1,2 -2,1 -4.1,2.4 -5.7,4 -1.6,1.6 -3.1,4.1 -3.8,5.8 -0.8,1.8 -1.4,5.5 -1.4,5.5 l 0,0 z"
             style="fill:#784421;stroke:#502d16;stroke-width:1.10389996" />
          <path
             id="path4171"
             sodipodi:nodetypes="cczccczc"
             inkscape:connector-curvature="0"
             class="st52"
             d="m 67.6,-132.8 c 0,0 -3.3,-1 -6.6,-0.6 -7,1.7 -13,9.2 -12.4,13.4 0.6,4.2 2.5,4.9 3.4,6.1 -3.8,0.8 -6.6,-2.2 -7.2,-6.6 -0.9,-7.2 7.6,-14.2 14.3,-15.4 2.1,-0.4 4.9,-0.3 6,0.4 1.1,0.7 2.4,1.4 2.5,2.7 l 0,0 z"
             style="fill:#a05a2c;stroke:#502d16;stroke-width:1.10389996" />
          <path
             id="path5749"
             sodipodi:nodetypes="cczcczc"
             inkscape:connector-curvature="0"
             class="st26"
             d="m 35.1,-145.8 c -0.7,3.9 -1.1,6.4 -0.4,10.7 0,0 0.6,0.7 1.2,0.7 0.6,0 1.6,-0.4 1.5,-0.8 -0.4,-4.1 -0.4,-7 0.4,-10.6 0,0 -0.9,-0.5 -1.4,-0.5 -0.6,0.1 -1.3,0.5 -1.3,0.5 z"
             style="fill:#a05a2c;stroke:#502d16;stroke-width:0.94450003" />
          <path
             id="path5751"
             sodipodi:nodetypes="czczszczc"
             inkscape:connector-curvature="0"
             class="st38"
             d="m 31.3,-139.3 c 0,0 1.9,1 4.3,1 2.4,0 5,-0.7 5,-0.7 0,0 0.8,-0.7 0.7,-1.2 -0.1,-0.5 -0.3,-1.3 -0.9,-1.2 -2.3,0.5 -2.7,0.9 -4.6,0.8 -2,-0.1 -1.7,-0.2 -4.4,-1.1 0,0 -0.7,0.8 -0.7,1.2 0,0.5 0.6,1.2 0.6,1.2 l 0,0 z"
             style="fill:#c87137;stroke:#502d16;stroke-width:1.05550003" />
          <path
             id="path5443"
             sodipodi:nodetypes="cczcczc"
             inkscape:connector-curvature="0"
             class="st26"
             d="m 41.6,-137.4 c -0.7,3.9 -1.1,6.4 -0.4,10.7 0,0 0.6,0.7 1.2,0.7 0.6,0 1.6,-0.4 1.5,-0.8 -0.4,-4.1 -0.4,-7 0.4,-10.6 0,0 -0.9,-0.5 -1.4,-0.5 -0.5,0 -1.3,0.5 -1.3,0.5 l 0,0 z"
             style="fill:#a05a2c;stroke:#502d16;stroke-width:0.94450003" />
          <path
             id="path5445"
             sodipodi:nodetypes="czczszczc"
             inkscape:connector-curvature="0"
             class="st38"
             d="m 38.7,-131.9 c 0,0 1.9,1 4.3,1 2.3,0.1 5,-0.7 5,-0.7 0,0 0.8,-0.7 0.7,-1.2 -0.1,-0.5 -0.3,-1.3 -0.9,-1.2 -2.3,0.5 -2.7,0.9 -4.6,0.8 -2,-0.1 -1.7,-0.2 -4.4,-1.1 0,0 -0.7,0.8 -0.7,1.2 0,0.5 0.6,1.2 0.6,1.2 l 0,0 z"
             style="fill:#c87137;stroke:#502d16;stroke-width:1.05550003" />
        </g>
        <g
           id="g4584"
           transform="translate(-109.36098,1.1391317)">
          <path
             id="path4426"
             sodipodi:nodetypes="ccccc"
             inkscape:connector-curvature="0"
             class="st47"
             d="m 55.4,-290.6 c 1.3,-7.4 3.1,-2.9 7.3,-8.3 -1.3,4.5 -2,7.3 -6,9.1 -0.5,0.5 -1.7,0.6 -1.7,0.6 0,0 0.1,-0.5 0.4,-1.4 z"
             style="fill:#aa0000;stroke:#550000;stroke-width:1.25" />
          <path
             id="path4428"
             sodipodi:nodetypes="cccc"
             inkscape:connector-curvature="0"
             class="st27"
             d="m 64.6,-301.3 c -2.3,2.8 -4,2.9 -4.5,10.3 l 0.3,3 c 3.7,0.9 3.6,-11.5 4.2,-13.3 l 0,0 z"
             style="fill:#ff0000;stroke:#550000;stroke-width:1.25" />
          <path
             id="path4479"
             sodipodi:nodetypes="ccccc"
             inkscape:connector-curvature="0"
             class="st27"
             d="m 58.5,-297.9 c 2.5,-6.2 3.5,-0.9 8.4,-3.6 -2,3.5 -3.1,6.3 -7.1,5.7 -0.5,0.2 -1.9,-0.2 -1.9,-0.2 0,0 0.2,-1.2 0.6,-1.9 z"
             style="fill:#ff0000;stroke:#550000;stroke-width:1.25" />
          <path
             id="path4481"
             sodipodi:nodetypes="ccccc"
             inkscape:connector-curvature="0"
             class="st47"
             d="m 63.5,-290.6 c 4,-2.6 1.5,-5.8 4.4,-13.6 -2.4,2.4 -4,3.9 -4.9,11.2 -0.2,0.9 -0.3,3.1 -0.3,3.1 0,0 0.3,-0.2 0.8,-0.7 l 0,0 z"
             style="fill:#aa0000;stroke:#550000;stroke-width:1.25" />
          <path
             id="path4483"
             sodipodi:nodetypes="ccccc"
             inkscape:connector-curvature="0"
             class="st47"
             d="m 61.8,-302.6 c 2.9,-5.6 3.5,-0.2 8.6,-1.9 -2.2,3.1 -3.6,5.1 -7.6,3.6 -0.6,0 -1.7,-0.7 -1.7,-0.7 0,0 0.3,-0.4 0.7,-1 z"
             style="fill:#aa0000;stroke:#550000;stroke-width:1.25" />
          <path
             id="path4485"
             sodipodi:nodetypes="cccc"
             inkscape:connector-curvature="0"
             class="st27"
             d="m 73.1,-305.3 c -2.7,0.8 -4.3,-0.4 -6.5,5.9 l -0.4,3 c 3.2,3.6 6,-7.7 6.9,-8.9 z"
             style="fill:#ff0000;stroke:#550000;stroke-width:1.25" />
          <path
             id="path4487"
             sodipodi:nodetypes="ccccc"
             inkscape:connector-curvature="0"
             class="st27"
             d="m 65.9,-307.1 c 3.6,-4.1 3.4,1.4 8.6,2.2 -2.6,1.9 -4.1,3.8 -7.8,0.6 -0.5,-0.2 -1.8,-1.5 -1.8,-1.5 0,0 0.5,-0.9 1,-1.3 z"
             style="fill:#ff0000;stroke:#550000;stroke-width:1.25" />
          <path
             id="path4489"
             sodipodi:nodetypes="ccccc"
             inkscape:connector-curvature="0"
             class="st47"
             d="m 69.1,-297 c 4.2,0.3 2.6,-4.4 6.8,-9.7 -2.7,0.7 -4.5,1 -6.8,7.2 -0.4,0.7 -0.9,2.7 -0.9,2.7 0,0 0.3,0 0.9,-0.2 z"
             style="fill:#aa0000;stroke:#550000;stroke-width:1.25" />
          <path
             id="path4491"
             sodipodi:nodetypes="ccccc"
             inkscape:connector-curvature="0"
             class="st47"
             d="m 69.9,-309.3 c 3.8,-3.3 3.3,2.1 8.4,4 -2.7,1.4 -4.3,2.4 -7.8,-1.7 -0.5,-0.3 -1.4,-1.8 -1.4,-1.8 0,0 0.3,-0.2 0.8,-0.5 l 0,0 z"
             style="fill:#aa0000;stroke:#550000;stroke-width:1.25" />
          <path
             id="path4493"
             sodipodi:nodetypes="cccc"
             inkscape:connector-curvature="0"
             class="st27"
             d="m 81,-304.3 c -2.7,-1.1 -3.9,-3.2 -7.2,1.2 l -0.9,2.5 c 2.1,5.5 7,-3.1 8.1,-3.7 z"
             style="fill:#ff0000;stroke:#550000;stroke-width:1.25" />
          <path
             id="path4495"
             sodipodi:nodetypes="ccccc"
             inkscape:connector-curvature="0"
             class="st27"
             d="m 75,-310.6 c 4.1,-2.1 3.1,3.2 7.9,6.6 -2.8,0.5 -4.5,1.5 -7.6,-3.5 -0.5,-0.5 -1.5,-2.3 -1.5,-2.3 0,0 0.7,-0.7 1.2,-0.8 z"
             style="fill:#ff0000;stroke:#550000;stroke-width:1.25" />
          <path
             id="path4497"
             sodipodi:nodetypes="ccccc"
             inkscape:connector-curvature="0"
             class="st47"
             d="m 76.4,-299.3 c 4,2.5 3.1,-2.9 8,-5.8 -2.7,-0.8 -4.5,-1.4 -7.6,3.4 -0.5,0.4 -1.3,2.1 -1.3,2.1 0,0 0.4,0.1 0.9,0.3 l 0,0 z"
             style="fill:#aa0000;stroke:#550000;stroke-width:1.25" />
          <path
             id="path4499"
             sodipodi:nodetypes="ccccc"
             inkscape:connector-curvature="0"
             class="st47"
             d="m 79.6,-310.1 c 4.2,-1.2 2.8,3.8 7.4,8.2 -2.8,0 -4.5,0 -7.2,-5.6 -0.5,-0.6 -1.1,-2.5 -1.1,-2.5 0,0 0.4,-0.1 0.9,-0.1 z"
             style="fill:#aa0000;stroke:#550000;stroke-width:1.25" />
          <path
             id="path4501"
             sodipodi:nodetypes="cccc"
             inkscape:connector-curvature="0"
             class="st27"
             d="m 89,-300.1 c -2.4,-2.5 -3.2,-5.1 -7.1,-2.6 l -1.3,1.9 c 1.2,6.4 7.3,0.7 8.4,0.7 l 0,0 z"
             style="fill:#ff0000;stroke:#550000;stroke-width:1.25" />
          <path
             id="path4503"
             sodipodi:nodetypes="ccccc"
             inkscape:connector-curvature="0"
             class="st27"
             d="m 84.6,-308.3 c 4.2,1.3 2,5.2 5.6,12 -2.6,-1.6 -4.5,-2.1 -6,-9 -0.3,-0.8 -0.8,-3.2 -0.8,-3.2 0,0 0.7,-0.1 1.2,0.2 z"
             style="fill:#ff0000;stroke:#550000;stroke-width:1.25" />
          <path
             id="path4505"
             sodipodi:nodetypes="ccccc"
             inkscape:connector-curvature="0"
             class="st47"
             d="m 83.3,-297 c 3.1,5.3 3.5,-0.2 8.6,1 -2.3,-2.8 -3.7,-4.7 -7.7,-2.8 -0.6,0 -1.7,0.9 -1.7,0.9 0,0 0.3,0.3 0.8,0.9 z"
             style="fill:#aa0000;stroke:#550000;stroke-width:1.25" />
          <path
             id="path4507"
             sodipodi:nodetypes="ccccc"
             inkscape:connector-curvature="0"
             class="st47"
             d="m 88.4,-305.2 c 4.1,2.2 1.7,5.6 4.8,13.1 -2.5,-2.2 -4.1,-3.5 -5.2,-10.7 -0.3,-0.9 -0.4,-3.1 -0.4,-3.1 0,0 0.3,0.3 0.8,0.7 l 0,0 z"
             style="fill:#aa0000;stroke:#550000;stroke-width:1.25" />
          <path
             id="path4509"
             sodipodi:nodetypes="cccc"
             inkscape:connector-curvature="0"
             class="st27"
             d="m 94.9,-288 c -1.6,-4.1 -1.7,-7.1 -5.8,-7.8 l -1.6,0.7 c -0.5,6.7 6.3,6.2 7.4,7.1 z"
             style="fill:#ff0000;stroke:#550000;stroke-width:1.25" />
          <path
             id="path4511"
             sodipodi:nodetypes="ccccc"
             inkscape:connector-curvature="0"
             class="st27"
             d="m 92.4,-300.4 c 3.6,4 0.9,6.2 2.8,14.9 -2.1,-3.3 -3.7,-4.9 -3.8,-12.4 -0.1,-1 -0.1,-3.5 -0.1,-3.5 0,0 0.7,0.3 1.1,1 z"
             style="fill:#ff0000;stroke:#550000;stroke-width:1.25" />
          <path
             id="path4513"
             sodipodi:nodetypes="ccccc"
             inkscape:connector-curvature="0"
             class="st47"
             d="m 88.9,-290.8 c 1.8,7 3.3,2.2 7.8,6.6 -1.6,-4.2 -2.5,-6.8 -6.6,-7.7 -0.5,-0.4 -1.7,-0.3 -1.7,-0.3 0,0 0.2,0.6 0.5,1.4 l 0,0 z"
             style="fill:#aa0000;stroke:#550000;stroke-width:1.25" />
        </g>
        <path
           id="path4618"
           sodipodi:nodetypes="ccccc"
           inkscape:connector-curvature="0"
           class="st5"
           d="m -45.5,-244.9 -1.2,-2.2 c -2.8,-2.3 -9,-1.9 -12,0.9 0.6,1.1 1.2,2.3 1.8,3.5 3.3,-4.7 7.1,-4.4 11.4,-2.2 z"
           style="fill:#e580ff" />
        <path
           id="path4620"
           sodipodi:nodetypes="ccccc"
           inkscape:connector-curvature="0"
           class="st5"
           d="m -39.7,-246.4 -0.2,-2.7 c 1.2,-3.4 6.8,-6.2 10.7,-5.5 1.3,0.5 1.2,2.7 0.5,4.2 -5,-2.3 -8.4,-0.2 -11,4 z"
           style="fill:#e580ff" />
        <path
           id="path4628"
           sodipodi:nodetypes="czcsscccccccccccc"
           inkscape:connector-curvature="0"
           class="st7"
           d="m -24,-225.5 c 2.5,-4.7 1.7,-7.5 2.5,-12.9 0.8,-5.4 -0.8,-9.5 -4.5,-9.6 -2.6,0 -4.3,2.1 -7.2,2.9 -1.7,0.5 -7.8,0.3 -6.1,-1.3 2.2,-2 11,-4.2 10.7,-4.1 0.2,-0.7 0.4,-1.4 0.4,-2.1 1.3,-2 2.8,-3.1 4.8,-4.3 l 0.2,4 1.1,0 -0.1,-4.6 c 2.6,-1.3 4.8,-2.5 6.8,-4.5 2.7,4.6 2.8,11.1 0,15.8 -0.8,1.4 -1.5,1.2 -2.6,0.1 -1.4,2.8 -1.3,4.6 -1.4,7 -0.2,4.4 -1.1,8 -3.5,11.9 l -1.1,1.7 z"
           style="fill:#e9c6af" />
        <path
           id="path4935"
           sodipodi:nodetypes="czzzzzcccczzzzzc"
           inkscape:connector-curvature="0"
           class="st67"
           d="m -18.9,-251.4 c 0.1,-0.5 -0.6,-2.2 -1.3,-1.5 -0.7,0.7 0,-2.1 0.1,-3.1 0.1,-1 0.3,-2.3 0.6,-3 0.4,-0.7 0.5,-1.1 1.1,-1.2 0.6,-0.1 1.4,0.5 1.7,1 0.4,0.5 0.4,1.6 0.4,1.6 -0.1,0.2 -0.3,1.1 -0.3,1.2 l -0.8,-0.3 -0.9,-1 c 0,0 1,1.7 1.5,2.1 0.4,0.4 0.6,0.3 0.9,0.6 0.2,0.4 0.3,1.1 0.2,1.6 -0.1,0.5 0,1.1 -0.5,1.3 -0.5,0.2 -1.2,-0.5 -1.6,-0.6 -0.4,-0.1 -0.9,0.5 -1.1,1.3 l 0,0 z"
           style="fill:#deaa87" />
        <path
           id="path4622"
           sodipodi:nodetypes="czzccccccczzcczcc"
           inkscape:connector-curvature="0"
           class="st55"
           d="m -20.4,-252.8 c -0.8,-0.2 -0.5,-3.1 -0.4,-4.3 0.1,-1.2 0.5,-2.5 1.1,-3.2 0.6,-0.7 1.3,-1 2.1,-0.8 2.5,1.6 3.1,5.9 2.7,8.4 -0.5,2.2 -1.7,1.6 -2.9,1 -0.7,0 -1.1,2 -1.1,2 0,0 -0.3,-2.2 0.2,-2.7 1.1,-1.1 1.8,-0.4 2.5,-0.1 0.7,-0.9 0,-2 -0.1,-2.3 -0.3,-0.5 -1.6,-1.6 -1.8,-2 -0.2,-0.4 -0.4,-0.8 0,-1 0.4,-0.2 0.7,1.1 1.2,1 0.8,-1.1 -0.2,-2.1 -1,-2.7 -0.5,-0.1 -0.6,0 -1,0.4 -0.4,0.4 -0.6,1.3 -0.7,2.3 -0.3,1.2 0.2,4.3 -0.8,4 l 0,0 z"
           style="fill:#d38d5f" />
        <path
           id="path4630"
           sodipodi:nodetypes="ccccc"
           inkscape:connector-curvature="0"
           class="st7"
           d="m -51.8,-250.1 c 3.2,-7.4 7.3,-14.9 14.2,-18.3 l 0.3,-2.9 c -10.7,4.5 -15.6,12.3 -19.3,22.5 1.5,-0.6 3.1,-1 4.8,-1.3 z"
           style="fill:#e9c6af" />
        <g
           id="g4519"
           transform="translate(-115.36098,-40.860868)">
          <path
             id="path4303"
             sodipodi:nodetypes="zccccczzzzzzzzz"
             inkscape:connector-curvature="0"
             class="st9"
             d="m 80.6,-227 c -0.6,1.6 -1.4,3.5 -2,5 -1.8,3.8 -1.1,3.3 -2,7.4 6.7,-5.7 11.8,-6.2 17.9,-12.3 -4,5.3 -5.9,8.9 -7.8,15.2 3.5,-5.9 7.7,-5 12.3,-9.3 1.5,-1.5 3,-3.2 3.7,-5 0.8,-1.8 1.1,-4.1 0.8,-5.5 -0.2,-1.4 -0.5,-1.8 -1.4,-2.9 -0.9,-1.1 -2.8,-2.3 -4.4,-3 -1.6,-0.7 -3.4,-1 -5.3,-1.2 -1.9,-0.2 -4.4,-0.5 -6,0.2 -1.5,0.7 -2.1,1.9 -2.9,3 -0.8,1.1 -1.2,2.1 -1.7,3.5 -0.4,1.5 -0.7,3.3 -1.2,4.9 l 0,0 z"
             style="fill:#aa0000;stroke:#550000;stroke-width:1.29999995" />
          <path
             id="path4862"
             sodipodi:nodetypes="czczccczzczccczczczzccccccc"
             inkscape:connector-curvature="0"
             class="st9"
             d="m 102.8,-235.5 c 1.8,-0.4 4.2,-1.5 4,-2.6 -0.2,-1.1 -1.6,-1.7 -1.6,-1.7 0,0 0.9,-1.7 0.6,-2.5 -0.3,-0.8 -2.1,-1.4 -2.1,-1.4 -2.4,2.7 -5.8,4.5 -8.8,5.1 3.7,-1.4 6.4,-2.9 8.7,-5.9 0,0 0.6,-1.1 0.5,-1.6 -0.1,-0.5 -0.2,-0.8 -0.5,-1 -0.3,-0.3 -1.2,-0.5 -1.2,-0.5 0,0 0.3,-0.9 -0.5,-1.3 -0.8,-0.4 -1.6,0.5 -1.6,0.5 -1.8,2.3 -3.3,3 -6.4,3.8 2.4,-1.1 5.9,-2.8 6,-4.8 0,-0.6 -0.2,-1.1 -0.5,-1.6 -0.3,-0.5 -1.2,-1.2 -1.2,-1.2 0,0 0.1,-1.5 -0.5,-1.8 -0.6,-0.3 -2.1,0.9 -2.1,0.9 0,0 -1.4,-1.7 -2.1,-2.1 -0.7,-0.4 -1.3,-0.3 -1.8,-0.1 -0.5,0.2 -1.2,0.9 -1.2,0.9 0.1,7.4 -4.2,11.9 -9.9,15.6 l 3.5,-0.6 -3.9,2.2 c 4,0.5 9.5,-2.4 12.4,-4.3 -3.3,2.9 -6.2,4.1 -11.2,5 5.7,1.9 15.5,2.2 21.4,1 z"
             style="fill:#aa0000;stroke:#550000;stroke-width:1.29999995" />
          <path
             id="path4864"
             sodipodi:nodetypes="cccsccccc"
             inkscape:connector-curvature="0"
             class="st48"
             d="m 80.8,-240.3 c 1.5,-3.5 2.5,-11.2 0.7,-15.9 -1,-2.6 2.9,-2.7 3.5,-0.1 0.4,-1 1.6,-2.3 2.3,-2.2 1.4,0.2 2.4,1.1 3,2.9 0.2,0.8 0.1,2.2 0.1,2.2 0,5 -3.7,11.6 -9,14.1 0.9,-1.2 2.1,-2.3 2.2,-3.7 -0.7,1.5 -1.3,3.1 -2.7,2.9"
             style="fill:#800000;stroke:#550000;stroke-width:1.29999995" />
          <path
             id="path4866"
             sodipodi:nodetypes="ccccccccccccccccccc"
             inkscape:connector-curvature="0"
             class="st9"
             d="m 79.6,-238.6 c 3.2,-6 3.4,-11 1.5,-18.7 -0.5,-0.9 -1,-2 -1.7,-2 -1.3,0.6 -1.9,1.6 -2.4,2.9 l -0.9,-1.4 -1,1.2 c -0.2,-1.2 -0.7,-1.8 -1.5,-2 l -0.6,1.1 c -0.7,-1 -1.6,-1.7 -2.6,-1.9 -0.8,1.1 -0.8,2.1 -0.6,3.2 -2,-0.8 -3.9,-0.8 -6,-0.4 l 0.5,3.1 c 5,2.3 9.6,5.2 12.3,9.8 0.6,1 1,2.3 1,2.3 l 0.4,1.9 0.9,-2 c 1.3,-4.4 0.2,-7.8 -1.4,-12 2.3,3.8 3,7.6 2.1,11.9 l 0,3 z"
             style="fill:#aa0000;stroke:#550000;stroke-width:1.29999995" />
          <path
             id="path4301"
             sodipodi:nodetypes="cccccczcc"
             inkscape:connector-curvature="0"
             class="st9"
             d="m 41.9,-227.3 3.7,-2.9 -2.6,3.3 c -3.6,5 -3.7,9.5 -2.5,15.2 0.2,-3.4 1.7,-5.8 3.3,-8.6 -4.6,11.2 -5.2,24 3.2,33.6 -2.6,-8.3 -2.7,-17 0.7,-24.3 3.4,-7.3 29.4,-21 15.2,-28.5 -8.1,-0.9 -19,4.2 -21,12.2 z"
             style="fill:#aa0000;stroke:#550000;stroke-width:1.29999995" />
          <path
             id="path4868"
             sodipodi:nodetypes="cccccczccccccczccccccccccccc"
             inkscape:connector-curvature="0"
             class="st20"
             d="m 47.8,-232 c -2,-0.1 -3.1,-0.8 -3.4,-2.9 l 2.6,-0.9 c -1.5,-0.9 -2,-1.9 -2.4,-3.7 L 48,-240 c 3.7,-0.7 6,-0.3 9.6,0.2 0.3,-0.8 -5.6,-1 -8.3,-0.9 -2.7,0.1 -2.1,-1.9 -2.1,-1.9 2.9,-1.3 10.8,-2 13,-0.1 -3.2,-2.1 -6.6,-1.6 -9.8,-1.1 -0.6,-0.7 -0.8,-1.4 -0.8,-2.2 2.1,-1.4 6.6,-1.7 9.2,-0.4 -1.1,-1 -2.7,-1.3 -4.5,-1.1 l -0.4,-2.3 c 0,0 0.8,-1.6 1.6,-1.9 0.8,-0.3 1.9,-0.5 3,-0.5 3.5,0.6 6,1.9 8.5,4 -2.3,-2.4 -4.6,-3.7 -7.9,-4.5 l -0.4,-1.4 4.2,0.1 c 2.3,1.1 13.1,6.4 14.4,13.9 l 0.3,2.1 -0.9,-0.9 c -2.5,-2.7 -7.1,-5.8 -11,-6.5 3.8,0.8 7.9,4.4 10,6.4 -2.5,-0.5 -8.3,-3.7 -11.8,-3.1 4.7,0 9,3.1 11.3,3.6 -7.5,4.9 -20.5,7 -27.4,6.5 z"
             style="fill:#d40000;stroke:#550000;stroke-width:1.29999995" />
          <path
             id="path4226"
             sodipodi:nodetypes="cccccccccc"
             inkscape:connector-curvature="0"
             class="st20"
             d="m 51.4,-186.9 c -1.4,-5.8 -1.7,-11.9 0.2,-17.5 -1.4,6.3 -1,13.6 0.3,19.4 0.9,3.4 2.1,6.5 4.2,9.3 -3.1,-17.7 2.4,-48.3 22.2,-54.9 0.1,3.1 -0.6,6.4 -1.7,9.2 -0.4,0.9 -1.1,2.3 -1.1,2.3 11.4,-4 19.3,-28.1 1.5,-24.8 -1.3,0.3 -2.7,0.8 -4.2,1.5 -17.9,11.3 -38.3,37.9 -21.4,55.5 z"
             style="fill:#d40000;stroke:#550000;stroke-width:1.29999995" />
        </g>
        <path
           id="path4224"
           sodipodi:nodetypes="ccc"
           inkscape:connector-curvature="0"
           class="st10"
           d="m -57.7,-260.1 c 1.8,-5.7 14.9,-22.2 20.2,-22.1 -7.7,4.1 -18,15.6 -20.2,22.1 l 0,0 z"
           style="fill:none;stroke:#550000;stroke-width:1.29999995" />
        <path
           id="path4606"
           sodipodi:nodetypes="cccc"
           inkscape:connector-curvature="0"
           class="st18"
           d="m -46.5,-247 c -3.7,-4.7 -10.1,-3.5 -12.3,-0.5 -0.5,0.8 -0.3,1.1 0,1.4 2.3,-1.2 4.9,-4.1 12.3,-0.9 z"
           style="fill:#550000" />
        <path
           id="path4608"
           sodipodi:nodetypes="cccc"
           inkscape:connector-curvature="0"
           class="st18"
           d="m -39.9,-248.9 c 0.9,-5.9 7.1,-8 10.5,-6.5 0.9,0.5 0.8,0.8 0.7,1.2 -2.6,0.1 -6.3,-1.1 -11.2,5.3 l 0,0 z"
           style="fill:#550000" />
        <path
           id="path4610"
           sodipodi:nodetypes="czzcc"
           inkscape:connector-curvature="0"
           class="st34"
           d="m -39.2,-247.1 c 0,0 1.9,0.4 3,0.3 1.1,-0.1 2.4,-0.3 3.4,-0.8 1,-0.5 3.9,-2.8 3.9,-2.8 -3.6,-2.9 -8,-1.1 -10.3,3.3 z"
           style="fill:#ffccaa" />
        <path
           id="path4612"
           sodipodi:nodetypes="cc"
           inkscape:connector-curvature="0"
           class="st58"
           d="m -39.7,-246.8 c 3.7,0.6 7.8,-0.4 10.8,-3.7"
           style="fill:none;stroke:#552200" />
        <path
           id="path4614"
           sodipodi:nodetypes="czzcc"
           inkscape:connector-curvature="0"
           inkscape:transform-center-y="-1.436846"
           inkscape:transform-center-x="-0.9968198"
           class="st34"
           d="m -45.7,-245 c 0,0 -1.8,1.1 -2.9,1.5 -1.1,0.4 -2.3,0.8 -3.4,0.9 -1.1,0.1 -4.5,-0.7 -4.5,-0.7 2.1,-4.4 6.8,-4.5 10.8,-1.7 l 0,0 z"
           style="fill:#ffccaa" />
        <path
           id="path4626"
           sodipodi:nodetypes="cccczccc"
           inkscape:connector-curvature="0"
           class="st7"
           d="m -45.4,-244.7 c 1.9,2.6 2.3,6.2 2.3,9.4 l -0.3,2.5 c 0.6,-6.1 -8.6,-12.1 -13.3,-4 0,0 -0.2,-1.2 -0.1,-1.9 0.1,-0.7 -0.1,-2.9 -0.2,-4.3 5.1,2.1 11.9,-1.6 11.6,-1.7 z"
           style="fill:#e9c6af" />
        <path
           id="path4616"
           sodipodi:nodetypes="cc"
           inkscape:connector-curvature="0"
           inkscape:transform-center-y="-0.29004048"
           inkscape:transform-center-x="-1.2202048"
           class="st58"
           d="m -45.5,-244.9 c -3.5,2.2 -7.3,2.7 -11.1,1.7"
           style="fill:none;stroke:#552200" />
        <path
           id="path4624"
           sodipodi:nodetypes="zzzzzzzzzz"
           inkscape:connector-curvature="0"
           class="st67"
           d="m -43.3,-233.9 c 0.2,-0.4 0.8,-1.1 1.5,-1.2 0.6,-0.1 0.8,1 1.6,0.9 0.8,-0.1 1.4,-2.2 2.3,-2.3 0.9,-0.1 2.1,0.3 2,1 -0.1,0.8 -1.6,0 -2.3,0.4 -0.7,0.4 -0.9,2 -1.7,2.2 -0.8,0.2 -1.2,-1.1 -1.9,-1 -0.7,0 -1,1.2 -1.5,1 -0.4,-0.2 -0.2,-0.5 0,-1 z"
           style="fill:#deaa87" />
        <path
           id="path4674"
           sodipodi:nodetypes="ccccccczc"
           inkscape:connector-curvature="0"
           class="st7"
           d="m -10.7,-92 c 1.3,-0.7 6,-1.2 6,-1.2 -4.7,-0.5 -10.2,11.1 -5,16.3 l -1,-0.1 -0.6,6.2 c -2.4,3 -5.4,5.8 -7.8,8.8 0.7,-4 1.1,-8 1.3,-11.6 3.5,-3.4 5.6,-9.5 6.1,-11.8 0.6,-2.4 1,-6.6 1,-6.6 z"
           style="fill:#e9c6af" />
        <path
           id="path4743"
           sodipodi:nodetypes="cczcczc"
           inkscape:connector-curvature="0"
           class="st46"
           d="m -66.4,5.1 c -3,-4.5 -5,-7.5 -6.6,-13.3 0,0 0.4,-1.3 1.2,-1.5 0.8,-0.3 2.2,-0.4 2.3,0.1 1.8,5.4 3.5,9.1 6.5,13.2 0,0 -0.8,1.1 -1.5,1.4 -0.7,0.2 -1.9,0.1 -1.9,0.1 l 0,0 z"
           style="fill:#d38d5f;stroke:#502d16;stroke-width:1.30850005" />
        <path
           id="path4745"
           sodipodi:nodetypes="czczszczc"
           inkscape:connector-curvature="0"
           class="st39"
           d="m -74.8,-0.9 c 0,0 1.9,-2.3 4.8,-3.7 2.9,-1.4 6.7,-1.9 6.7,-1.9 0,0 1.4,0.4 1.6,1.1 0.2,0.7 0.3,1.9 -0.4,2 -3.3,0.6 -3.9,0.4 -6.4,1.6 -2.4,1.3 -2.1,1.3 -5,3.8 0,0 -1.3,-0.6 -1.6,-1.2 -0.1,-0.5 0.3,-1.7 0.3,-1.7 l 0,0 z"
           style="fill:#c87137;stroke:#502d16;stroke-width:1.46229994" />
        <path
           id="path4747"
           sodipodi:nodetypes="cczcczc"
           inkscape:connector-curvature="0"
           class="st46"
           d="m -62.8,-9.2 c -3,-4.5 -5,-7.5 -6.6,-13.3 0,0 0.4,-1.3 1.2,-1.5 0.8,-0.3 2.2,-0.4 2.3,0.1 1.8,5.4 3.5,9.1 6.5,13.2 0,0 -0.8,1.1 -1.5,1.4 -0.8,0.2 -1.9,0.1 -1.9,0.1 l 0,0 z"
           style="fill:#d38d5f;stroke:#502d16;stroke-width:1.30850005" />
        <path
           id="path4749"
           sodipodi:nodetypes="czczszczc"
           inkscape:connector-curvature="0"
           class="st39"
           d="m -69.6,-14.5 c 0,0 1.9,-2.3 4.8,-3.7 2.9,-1.4 6.7,-1.9 6.7,-1.9 0,0 1.4,0.4 1.6,1.1 0.2,0.7 0.3,1.9 -0.4,2 -3.2,0.6 -3.9,0.4 -6.3,1.6 -2.4,1.3 -2.1,1.3 -5,3.8 0,0 -1.3,-0.6 -1.6,-1.2 -0.3,-0.6 0.2,-1.7 0.2,-1.7 l 0,0 z"
           style="fill:#c87137;stroke:#502d16;stroke-width:1.46229994" />
        <path
           id="path4770"
           sodipodi:nodetypes="ccccccc"
           inkscape:connector-curvature="0"
           class="st7"
           d="m -31.9,-206.3 c 0,0 -0.1,-3.2 0.5,-4.2 1,-1.6 3.4,-2 4.6,-1.2 1.1,0.7 2.1,4.5 2.1,4.5 0,0 -1.7,-2.5 -2.6,-3 -1.7,-0.8 -2.6,-0.2 -3.2,0.8 -0.4,0.7 -1.4,3.1 -1.4,3.1 z"
           style="fill:#e9c6af" />
        <path
           id="path4772"
           sodipodi:nodetypes="cccccc"
           inkscape:connector-curvature="0"
           class="st25"
           d="m -111.4,-50.5 c -6.8,14.9 -8.4,39.7 8.7,52.6 -0.4,0 -0.4,-3.9 0.2,-4.8 2.5,-4.4 6.9,-6.8 11.5,-8.9 -19.2,-6.9 -20.6,-23.4 -17.9,-39 l -2.5,0.1 z"
           style="fill:#5e6b09" />
        <path
           id="path4776"
           sodipodi:nodetypes="ccccccccccc"
           inkscape:connector-curvature="0"
           class="st36"
           d="m -31.3,-46.8 c 0.8,0.2 1.7,0.5 1.9,1.8 0,8 -0.7,16.7 -5.2,23.9 2.9,-0.1 6.4,-0.7 9.2,-1.8 2.4,-7.1 3.6,-14.4 4.5,-21.6 0.2,-1.8 0.5,-4.3 0.5,-4.3 l 0.1,-1.9 c 0,-0.5 -0.5,-1 -0.8,-1.1 l -0.2,1.1 c -0.2,0.5 -0.1,1 -0.6,1.3 -3,1.6 -5.9,2.1 -9.4,2.6 l 0,0 z"
           style="fill:#653600" />
        <path
           id="path4788"
           sodipodi:nodetypes="ccccccscc"
           inkscape:connector-curvature="0"
           class="st49"
           d="m -22,-32.2 c -0.3,3.1 -2.1,8.5 -2.7,10.3 -2.8,0.7 -4.2,1.2 -6.8,1.7 -0.5,2.2 -2.7,7.1 -3.5,8.7 2.9,1.8 6.8,3.7 10,4.2 0.4,-0.9 1.8,-3.7 2.5,-4.8 1.7,-0.2 2.5,-0.4 3,-1.6 2.5,-5 5,-10.8 3.8,-14.2 -3,-1.7 -4.6,-2.6 -6.3,-4.3 l 0,0 z"
           style="fill:#6b3e22" />
      </g>
    </g>
    <g
       id="g4701"
       transform="matrix(0.78062063,0,0,0.78062063,71.445405,693.67515)"
       inkscape:transform-center-y="63.001396"
       inkscape:transform-center-x="52.217039">
      <g
         id="g3531"
         inkscape:transform-center-x="7.6178168"
         inkscape:transform-center-y="9.0194255">
        <path
           style="fill:#800000;stroke:#550000"
           d="m -62.1,-208 c -1.7,-1.7 -2.1,-4.3 -2,-7.7 l 3,-0.8 c -0.7,3.2 0.9,5.5 4,7.3 l -5,1.2 z"
           class="st8"
           inkscape:connector-curvature="0"
           sodipodi:nodetypes="ccccc"
           id="path5478" />
        <path
           style="fill:#aa0000;stroke:#550000"
           d="m -58.7,-208.9 c 0.7,-2.1 2.1,-5 -2,-7.7 l 3,-0.8 c 3.2,2.1 2.7,4.6 2.3,7.7 l -3.3,0.8 z"
           class="st43"
           inkscape:connector-curvature="0"
           sodipodi:nodetypes="ccccc"
           id="path5480" />
        <path
           style="fill:#d40000;stroke:#550000"
           d="m -59.2,-208.7 c 0,0 -1.1,-0.3 -1.8,-1.2 -0.8,-1.1 -1.3,-2.9 -1.3,-3.8 0,-1.8 0.1,-2.5 0.1,-2.5 l 2.7,-0.8 c 0,0 2.7,1.9 1.8,4.6 -0.8,2.7 0.8,3.2 0.8,3.2 l -2.3,0.5 z"
           class="st62"
           inkscape:connector-curvature="0"
           sodipodi:nodetypes="csscczcc"
           id="path5482" />
        <path
           style="fill:#800000;stroke:#550000"
           d="m -62.1,-208 4,-0.7 c -5.3,14.2 -14.4,27.4 -31.7,39.7 l -1.9,-3.4 c 15,-10.7 24.3,-23.2 29.6,-35.6 l 0,0 z"
           class="st8"
           inkscape:connector-curvature="0"
           sodipodi:nodetypes="ccccc"
           id="path5484" />
        <path
           style="fill:#ffcc00"
           d="m -91.6,-173 2.5,4.4 -2.7,5.2 -5.1,-9.7 5.3,0.1 z"
           class="st33"
           inkscape:connector-curvature="0"
           id="path5486" />
        <path
           style="fill:#d40000;stroke:#550000"
           d="m -99.1,-168.4 c -4.2,1.5 -9.3,1.9 -13,0.4 l 0.4,4.7 c 2.1,0.6 4.6,0.3 7.2,-0.3 -3.2,1.9 -6.2,3 -9.9,2.9 l 0.9,4.9 c 4,-0.2 6.9,-1.9 10.2,-4.2 -1.9,2.5 -3.6,4.6 -6.7,5.5 l 2.8,3 c 4.6,-1.5 6.3,-5.3 8.3,-9.8 l 2.2,-3.2 -2.4,-3.9 z"
           class="st62"
           inkscape:connector-curvature="0"
           sodipodi:nodetypes="cccccccccccc"
           id="path5490" />
        <path
           style="fill:#aa8800"
           d="m -96.9,-173.3 5.2,10 -5.4,-0.4 -2.6,-4.5 2.8,-5.1 z"
           class="st1"
           inkscape:connector-curvature="0"
           sodipodi:nodetypes="ccccc"
           id="path5488" />
        <path
           style="fill:#aa0000;stroke:#550000"
           d="m -61.6,-187.2 c 0,0 3.1,-7.2 3.6,-10.8 0.5,-3.6 -0.7,-10.6 -0.7,-10.6 l 3.2,-0.9 c 0,0 0.9,7.6 0.6,11.6 -0.3,4 -2.5,12.4 -2.5,12.4 l -4.2,-1.7 z"
           class="st43"
           inkscape:connector-curvature="0"
           sodipodi:nodetypes="czcczcc"
           id="path5498" />
        <path
           style="fill:#ffcc00"
           d="m -61.8,-187.7 4.8,1.6 1.5,5.7 -10.3,-3.8 4,-3.5 z"
           class="st33"
           inkscape:connector-curvature="0"
           id="path5492" />
        <path
           style="fill:#d40000;stroke:#550000"
           d="m -64,-179.2 c 0,0 -4.1,4 -6.1,5.5 -2,1.5 -5.8,3.6 -5.8,3.6 l 1.6,3 6.3,-5.8 -5.7,8.7 3.2,1.8 5.3,-8.3 -2.6,8.8 4,0.6 1.6,-8.8 3.1,7.4 5,-2.4 c 0,0 -3.7,-3.9 -4.4,-6 -0.7,-2.2 -1.2,-6.2 -1.2,-6.2 l -4.3,-1.9 z"
           class="st62"
           inkscape:connector-curvature="0"
           sodipodi:nodetypes="czccccccccccczcc"
           id="path5496" />
        <path
           style="fill:#aa8800"
           d="m -66,-184.4 10.6,3.9 -4.2,3.3 -4.9,-1.6 -1.5,-5.6 z"
           class="st1"
           inkscape:connector-curvature="0"
           sodipodi:nodetypes="ccccc"
           id="path5494" />
      </g>
    </g>
  </g>
</svg>
