<?xml version="1.0" encoding="UTF-8" standalone="no"?>
<!-- Created with Inkscape (http://www.inkscape.org/) -->

<svg
   xmlns:dc="http://purl.org/dc/elements/1.1/"
   xmlns:cc="http://creativecommons.org/ns#"
   xmlns:rdf="http://www.w3.org/1999/02/22-rdf-syntax-ns#"
   xmlns:svg="http://www.w3.org/2000/svg"
   xmlns="http://www.w3.org/2000/svg"
   xmlns:sodipodi="http://sodipodi.sourceforge.net/DTD/sodipodi-0.dtd"
   xmlns:inkscape="http://www.inkscape.org/namespaces/inkscape"
   width="75.363823mm"
   height="103.43662mm"
   viewBox="0 0 267.03717 366.50772"
   id="svg4120"
   version="1.1"
   inkscape:version="0.91 r13725"
   sodipodi:docname="girlhair.svg">
  <defs
     id="defs4122" />
  <sodipodi:namedview
     id="base"
     pagecolor="#ffffff"
     bordercolor="#666666"
     borderopacity="1.0"
     inkscape:pageopacity="0.0"
     inkscape:pageshadow="2"
     inkscape:zoom="2.8"
     inkscape:cx="203.24822"
     inkscape:cy="276.01982"
     inkscape:document-units="px"
     inkscape:current-layer="layer1"
     showgrid="false"
     inkscape:window-width="1920"
     inkscape:window-height="1018"
     inkscape:window-x="-8"
     inkscape:window-y="-8"
     inkscape:window-maximized="1"
     fit-margin-top="0"
     fit-margin-left="0"
     fit-margin-right="0"
     fit-margin-bottom="0" />
  <metadata
     id="metadata4125">
    <rdf:RDF>
      <cc:Work
         rdf:about="">
        <dc:format>image/svg+xml</dc:format>
        <dc:type
           rdf:resource="http://purl.org/dc/dcmitype/StillImage" />
        <dc:title />
      </cc:Work>
    </rdf:RDF>
  </metadata>
  <g
     inkscape:label="Layer 1"
     inkscape:groupmode="layer"
     id="layer1"
     transform="translate(-3.6242806,-446.2512)">
    <g
       id="g3588"
       transform="matrix(0.56767176,0,0,0.56767176,687.85618,683.65788)"
       inkscape:transform-center-y="60.566093"
       inkscape:transform-center-x="-10.852907">
      <path
         id="path4322"
         sodipodi:nodetypes="ccccccccczcc"
         inkscape:connector-curvature="0"
         class="st13"
         d="m -908.0254,-244.46469 c -7.3927,13.15646 -17.6673,24.30821 -23.807,37.08874 -7.3927,14.2843 -11.0265,29.82146 -6.0144,45.23335 1.0023,2.88195 3.5084,7.89387 3.5084,7.89387 0.6265,-19.92268 12.2794,-33.58033 23.0552,-47.23805 29.6961,-31.95155 26.8142,-55.88384 4.5108,-91.21847 -5.2626,-7.51801 -9.6481,-15.03603 -13.5324,-22.9299 -1.8795,-4.00967 -1.1277,-10.77583 -5.1373,-11.90354 -7.2674,-0.2506 -18.4192,10.77582 -16.7903,18.04324 5.7638,33.5804 9.5229,59.39225 1.0024,76.43304 -8.3951,17.0408 -3.6337,28.31776 -1.5036,33.95627 3.3831,-31.07438 23.8071,-31.07438 34.7082,-45.35855 z"
         style="fill:#800000;stroke:#550000;stroke-width:1.76234555" />
      <path
         id="path4318"
         sodipodi:nodetypes="zccsccczczcz"
         inkscape:connector-curvature="0"
         class="st56"
         d="m -919.0518,-300.84979 c 9.5228,17.29146 37.8406,94.72689 24.9347,116.905 5.8891,-6.26503 12.0288,-13.03119 16.4143,-20.04801 10.9011,-24.93474 -1.1277,-41.59961 -17.0408,-69.54156 -3.759,-6.51562 -26.4383,-40.84781 -29.0696,-48.74175 23.4311,36.08642 68.4138,86.83301 48.867,116.6544 0,0 6.7662,-4.88672 8.8963,-7.26735 22.17811,-19.29629 7.7686,-67.03559 -16.1637,-85.07884 -23.807,-18.04318 -32.8286,-36.21169 -36.5876,-54.25493 -1.1277,-2.3807 -2.3807,-5.88904 -5.012,-6.89149 -2.6313,-1.00239 -6.1397,0.12533 -8.1445,2.00483 -3.3831,12.27941 3.3831,38.96838 12.9059,56.2597 z"
         style="fill:#aa0000;stroke:#550000;stroke-width:1.76234555" />
      <path
         id="path4324"
         sodipodi:nodetypes="ccscccczczcc"
         inkscape:connector-curvature="0"
         class="st12"
         d="m -954.8877,-287.56793 c -0.2506,6.39023 -4.7614,9.27218 -5.6385,14.78536 -9.3975,45.35867 17.1662,80.94384 29.6962,105.00146 4.6361,8.89638 5.012,17.54205 4.7614,23.80708 -19.171,-18.54444 -45.3587,-25.18533 -53.2526,-48.61649 -15.1613,-31.1997 11.7782,-56.38497 10.2746,-81.5703 -8.2698,30.19726 -24.8094,65.90776 -12.53,91.84494 -25.06,-15.03603 -2.7566,-70.7946 1.3783,-88.83778 4.1349,-18.04324 -9.5228,-42.1008 -2.506,-54.50553 2.1301,-1.75417 18.9203,-5.26258 20.9251,-4.38547 2.0048,0.87706 2.7566,2.25537 3.5084,4.63613 -1.253,12.90586 3.759,25.06 3.3831,37.8406 l 0,0 z"
         style="fill:#800000;stroke:#550000;stroke-width:1.6330359" />
    </g>
  </g>
</svg>
