<?xml version="1.0" encoding="UTF-8" standalone="no"?>
<!-- Created with Inkscape (http://www.inkscape.org/) -->

<svg
   xmlns:dc="http://purl.org/dc/elements/1.1/"
   xmlns:cc="http://creativecommons.org/ns#"
   xmlns:rdf="http://www.w3.org/1999/02/22-rdf-syntax-ns#"
   xmlns:svg="http://www.w3.org/2000/svg"
   xmlns="http://www.w3.org/2000/svg"
   xmlns:sodipodi="http://sodipodi.sourceforge.net/DTD/sodipodi-0.dtd"
   xmlns:inkscape="http://www.inkscape.org/namespaces/inkscape"
   width="70.015999"
   height="70.015999"
   viewBox="0 0 70.015996 70.016"
   id="svg3435"
   version="1.1"
   inkscape:version="0.91 r13725"
   sodipodi:docname="icon.svg">
  <defs
     id="defs3437" />
  <sodipodi:namedview
     id="base"
     pagecolor="#ffffff"
     bordercolor="#666666"
     borderopacity="1.0"
     inkscape:pageopacity="0.0"
     inkscape:pageshadow="2"
     inkscape:zoom="3.959798"
     inkscape:cx="-6.0646419"
     inkscape:cy="25.669463"
     inkscape:document-units="px"
     inkscape:current-layer="layer1"
     showgrid="false"
     inkscape:window-width="741"
     inkscape:window-height="643"
     inkscape:window-x="175"
     inkscape:window-y="175"
     inkscape:window-maximized="0"
     inkscape:snap-page="true"
     inkscape:snap-bbox="true"
     inkscape:bbox-paths="true"
     inkscape:bbox-nodes="true"
     inkscape:snap-bbox-edge-midpoints="true"
     units="px" />
  <metadata
     id="metadata3440">
    <rdf:RDF>
      <cc:Work
         rdf:about="">
        <dc:format>image/svg+xml</dc:format>
        <dc:type
           rdf:resource="http://purl.org/dc/dcmitype/StillImage" />
        <dc:title />
      </cc:Work>
    </rdf:RDF>
  </metadata>
  <g
     inkscape:label="Layer 1"
     inkscape:groupmode="layer"
     id="layer1"
     transform="translate(0,-982.34616)">
    <path
       inkscape:connector-curvature="0"
       id="path4355"
       d="M 35.007809,982.34651 A 35.007645,35.007645 0 0 0 0,1017.3544 a 35.007645,35.007645 0 0 0 35.007809,35.0078 35.007645,35.007645 0 0 0 35.00781,-35.0078 35.007645,35.007645 0 0 0 -35.00781,-35.00789 z m -0.13867,13.14645 a 22,22 0 0 1 22,22.00014 22,22 0 0 1 -22,22 22,22 0 0 1 -21.999999,-22 22,22 0 0 1 21.999999,-22.00014 z m -0.2168,13.18764 a 8.6088858,8.7373762 0 0 0 -8.60937,8.7383 8.6088858,8.7373762 0 0 0 8.60937,8.7363 8.6088858,8.7373762 0 0 0 8.60938,-8.7363 8.6088858,8.7373762 0 0 0 -8.60938,-8.7383 z"
       style="opacity:0.86499999;fill:#37ffdc;fill-opacity:1;fill-rule:evenodd;stroke:none;stroke-width:1.60000002;stroke-linecap:round;stroke-linejoin:round;stroke-miterlimit:4;stroke-dasharray:none;stroke-dashoffset:0;stroke-opacity:1" />
  </g>
</svg>
