<?xml version="1.0" encoding="UTF-8" standalone="no"?>
<!-- Created with Inkscape (http://www.inkscape.org/) -->

<svg
   xmlns:dc="http://purl.org/dc/elements/1.1/"
   xmlns:cc="http://creativecommons.org/ns#"
   xmlns:rdf="http://www.w3.org/1999/02/22-rdf-syntax-ns#"
   xmlns:svg="http://www.w3.org/2000/svg"
   xmlns="http://www.w3.org/2000/svg"
   xmlns:sodipodi="http://sodipodi.sourceforge.net/DTD/sodipodi-0.dtd"
   xmlns:inkscape="http://www.inkscape.org/namespaces/inkscape"
   id="svg2"
   version="1.1"
   inkscape:version="0.91 r13725"
   width="1056.9"
   height="359.59998"
   viewBox="0 0 1056.9 359.59998"
   sodipodi:docname="index_1.svg">
  <metadata
     id="metadata8">
    <rdf:RDF>
      <cc:Work
         rdf:about="">
        <dc:format>image/svg+xml</dc:format>
        <dc:type
           rdf:resource="http://purl.org/dc/dcmitype/StillImage" />
        <dc:title />
      </cc:Work>
    </rdf:RDF>
  </metadata>
  <defs
     id="defs6">
    <inkscape:path-effect
       effect="spiro"
       id="path-effect4309"
       is_visible="true" />
    <inkscape:path-effect
       effect="spiro"
       id="path-effect4298"
       is_visible="true" />
    <pattern
       y="0"
       x="0"
       height="6"
       width="6"
       patternUnits="userSpaceOnUse"
       id="EMFhbasepattern" />
  </defs>
  <sodipodi:namedview
     pagecolor="#ffffff"
     bordercolor="#666666"
     borderopacity="1"
     objecttolerance="10"
     gridtolerance="10"
     guidetolerance="10"
     inkscape:pageopacity="0"
     inkscape:pageshadow="2"
     inkscape:window-width="1920"
     inkscape:window-height="1018"
     id="namedview4"
     showgrid="false"
     inkscape:zoom="4.27446"
     inkscape:cx="236.94792"
     inkscape:cy="132.58202"
     inkscape:window-x="-8"
     inkscape:window-y="-8"
     inkscape:window-maximized="1"
     inkscape:current-layer="g6171"
     showguides="true"
     inkscape:guide-bbox="true">
    <sodipodi:guide
       position="1.3485635,-64.731049"
       orientation="1,0"
       id="guide4221" />
  </sodipodi:namedview>
  <g
     transform="matrix(0.80452416,0,0,0.80452416,790.72154,312.69395)"
     id="g6164">
    <g
       transform="translate(-721.86002,48.462641)"
       id="g6171">
      <path
         inkscape:connector-curvature="0"
         id="path4198"
         d="m 259.54993,-206.34888 c -1.88069,0.046 -3.81352,0.23138 -5.79734,0.56437 -28.21439,4.73577 -36.05594,24.94333 -32.66859,52.19811 1.48973,12.80179 1.37752,36.24586 -15.31371,53.34031 -63.31988,55.315126 -163.903997,33.247696 -185.593905,-35.23184 -0.571381,-1.86904 -6.927559,-38.0101 -7.471837,-40.15563 0.004,0.55148 -7.0543197,1.56006 -7.0595527,2.07664 -13.396288,2.11582 -9.950495,1.80827 -22.8953973,4.40503 -5.920335,1.42685 -0.0321,24.26463 -6.532349,13.67133 13.046905,98.342336 -131.523759,152.2114867 -202.271889,127.239207 l 1.60309,173.941513 1176.85068,-3.91184 0.24137,-186.096064 c -0.63665,-55.33403 -63.51809,-38.61629 -89.69487,-26.93638 C 778.3459,-35.884843 671.63242,-116.41076 680.01571,-204.86025 l -44.38157,0 -6.5763,27.00472 c -6.63818,26.8451 -25.68367,59.49444 -53.25417,73.14866 -64.85868,26.898796 -263.63348,37.536746 -276.24509,-42.84396 0.45863,-34.53945 -14.36228,-58.19147 -38.14491,-58.79805 -0.61506,-0.0156 -1.23683,-0.0153 -1.86374,0 z m 7.34343,23.57804 c 13.37716,0.52676 21.72848,18.22199 23.98186,25.12072 13.53646,35.9041 -31.41185,47.82364 -40.92107,11.6099 -3.38188,-18.84227 0.007,-31.69821 10.90192,-35.82326 2.11306,-0.70701 4.12627,-0.98262 6.03729,-0.90736 z"
         style="fill:#0055d4;fill-rule:evenodd;stroke:none;stroke-width:0.99999607;stroke-linecap:butt;stroke-linejoin:miter;stroke-miterlimit:4;stroke-dasharray:none;stroke-opacity:1"
         sodipodi:nodetypes="cscccccccccccccccccccscccs" />
      <ellipse
         transform="matrix(0.97766405,-0.21017377,0.22530929,0.97428729,0,0)"
         ry="39.879501"
         rx="25.584284"
         cy="-93.251495"
         cx="296.74637"
         id="path4279"
         style="opacity:1;fill:#0044aa;fill-opacity:1;fill-rule:evenodd;stroke:none;stroke-width:0.60000002;stroke-linecap:butt;stroke-linejoin:miter;stroke-miterlimit:4;stroke-dasharray:none;stroke-dashoffset:0;stroke-opacity:1" />
      <path
         inkscape:connector-curvature="0"
         id="path4241"
         d="m 267.72413,-115.67105 c 4.89972,-20.53652 6.08645,-30.11236 27.82512,-25.48295 0.0666,-3.32061 0.27571,-6.29087 -0.21506,-8.49679 -23.72897,-2.41192 -28.97973,-21.33919 -31.35862,-42.53301 -4.66493,-0.98394 -15.95571,3.14175 -17.69735,13.65177 25.50387,27.79391 19.38704,27.65457 3.74007,45.81096 0,0 2.20094,5.8252 7.86121,11.19136 5.66029,5.36617 9.84463,5.85866 9.84463,5.85866 z"
         style="fill:#004bd4;fill-opacity:1;fill-rule:evenodd;stroke:none;stroke-width:0.99999607;stroke-linecap:butt;stroke-linejoin:miter;stroke-miterlimit:4;stroke-dasharray:none;stroke-opacity:1"
         sodipodi:nodetypes="ccccccsc" />
      <path
         inkscape:connector-curvature="0"
         id="path4233"
         d="m 679.69219,-200.77772 c 0,0 1.05433,-5.88216 -0.36388,-9.3984 -1.41814,-3.51621 -4.05037,-7.68567 -9.02383,-8.51301 -4.97347,-0.82736 -11.13324,6.15347 -15.064,5.38023 -3.93078,-0.77324 -3.35318,-5.05422 -5.67631,-5.24403 -2.32313,-0.1898 -2.24217,2.84866 -4.94855,3.20089 -2.70641,0.35226 -4.76705,-3.30129 -8.0778,-3.06468 -7.7914,1.11137 -5.72201,12.60617 -4.94857,18.18383 0.60758,4.47358 -0.19914,8.9651 2.98369,14.36999 3.18283,5.40488 8.51651,4.74583 10.69763,-0.40862 2.18111,-5.15446 -0.28145,-8.75752 0.94604,-11.98635 1.22752,-3.22885 0.59008,-6.36536 6.18571,-6.19747 5.59563,0.16784 25.61609,0.0682 25.61609,0.0682 z"
         style="fill:#2a7fff;fill-opacity:1;fill-rule:evenodd;stroke:none;stroke-width:0.99999607;stroke-linecap:butt;stroke-linejoin:miter;stroke-miterlimit:4;stroke-dasharray:none;stroke-opacity:1"
         sodipodi:nodetypes="ccssssccsssscc" />
      <path
         inkscape:connector-curvature="0"
         style="fill:#2a7fff;fill-opacity:1;fill-rule:evenodd;stroke:none;stroke-width:0.63391078;stroke-linecap:butt;stroke-linejoin:miter;stroke-miterlimit:4;stroke-dasharray:none;stroke-opacity:1"
         d="m 19.074404,-138.83054 c 0.08617,-8.40303 -0.937051,-21.68355 -2.839334,-29.88793 -1.181129,-5.04135 -2.240945,-10.23399 -3.754437,-12.56693 -1.927694,-4.25648 -5.9755917,-1.23269 -9.0794467,-2.50117 -1.972815,-0.89834 -3.28126297,1.17513 -5.620215,0.43898 -2.338939,-0.73612 -3.13201,2.14957 -4.808713,1.85643 -3.5179643,-2.58917 -5.6717963,0.52858 -8.3537783,0.65503 -1.678262,0.0107 -3.088966,-1.76674 -5.55035,-1.65666 -11.291732,1.53744 -7.683153,12.57532 -5.241932,21.8975 0.865933,3.20129 2.294403,7.60095 4.539157,7.98993 7.736585,-0.24977 -1.686026,-15.91188 4.376945,-15.80573 3.946375,0.44761 3.486347,8.38798 4.296597,12.43875 0.810265,4.0508 0.231693,5.64655 1.619437,10.41304 1.4209193,10.24539 6.8654303,5.7901 5.6745263,1.1525 -0.731475,-3.18349 0.200821,-6.73526 2.564465,-5.03272 2.36365603,1.70251 7.961218,15.71526 13.7308467,15.01556 3.076873,-0.5656 1.95754,-6.50497 4.101317,-7.04721 2.143777,-0.54226 1.813119,4.02858 4.344915,2.64063 z"
         id="path4237"
         sodipodi:nodetypes="ccccsccccccsccscsc" />
      <path
         inkscape:connector-curvature="0"
         style="fill:#2a7fff;fill-opacity:1;fill-rule:evenodd;stroke:none;stroke-width:0.99999607;stroke-linecap:butt;stroke-linejoin:miter;stroke-miterlimit:4;stroke-dasharray:none;stroke-opacity:1"
         d="m 282.91374,-204.98536 c -12.19332,-7.63279 -45.67741,-6.97891 -58.10436,9.94323 -3.32736,5.13895 0.72563,9.11262 13.90598,1.97499 4.76733,-2.84406 9.64853,-6.36532 15.18286,-6.19746 1.78882,0.0542 5.86098,2.19679 9.51658,2.20754 4.44472,0.0133 6.62475,-2.75599 9.49181,-3.37071 2.07027,-0.44388 3.80691,2.79564 5.04033,3.34748 4.20849,1.7826 9.09922,-4.5185 4.9668,-7.90507 z"
         id="path4222"
         sodipodi:nodetypes="cccccscc" />
    </g>
  </g>
</svg>
