<?xml version="1.0" encoding="UTF-8" standalone="no"?><!DOCTYPE svg PUBLIC "-//W3C//DTD SVG 1.1//EN" "http://www.w3.org/Graphics/SVG/1.1/DTD/svg11.dtd"><svg width="100%" height="100%" viewBox="0 0 446 141" version="1.1" xmlns="http://www.w3.org/2000/svg" xmlns:xlink="http://www.w3.org/1999/xlink" xml:space="preserve" xmlns:serif="http://www.serif.com/" style="fill-rule:evenodd;clip-rule:evenodd;stroke-linejoin:round;stroke-miterlimit:1.41421;"><g id="Layer-1" serif:id="Layer 1"><g><path id="path4165" d="M68.842,90.912l-4.362,-35.444l19.085,-11.179l15.814,3.544l8.998,8.998l2.045,10.633l-5.453,12.542l-9.543,7.907l-19.086,4.09l-7.498,-1.091Z" style="fill:#fff;"/><g id="g4191"><path id="path3364" d="M137.859,99.204c3.406,0 6.179,-1.204 8.318,-3.611c2.14,-2.407 3.245,-5.225 3.317,-8.452c0.089,-3.245 -0.874,-6.036 -2.889,-8.372c-1.997,-2.353 -4.484,-3.53 -7.462,-3.53l-11.983,0c-3.53,0 -5.295,1.551 -5.295,4.654l0,26.693c0,3.102 1.765,4.654 5.295,4.654c3.531,0 5.296,-1.552 5.296,-4.654l0,-7.382l5.403,0Zm-2.354,-16.797c2.996,0 4.494,1.373 4.494,4.119c0,2.746 -1.498,4.119 -4.494,4.119l-3.049,0l0,-8.238l3.049,0Z" style="fill:#fff;fill-rule:nonzero;"/><path id="path3366" d="M162.412,106.586c0,3.102 -1.765,4.654 -5.295,4.654c-3.531,0 -5.296,-1.552 -5.296,-4.654l0,-26.8c0,-3.103 1.765,-4.654 5.296,-4.654c3.53,0 5.295,1.551 5.295,4.654l0,26.8Z" style="fill:#fff;fill-rule:nonzero;"/><path id="path3368" d="M189.721,93.426l9.896,10.485c0.713,0.963 1.07,1.988 1.07,3.076c0,1.07 -0.535,2.042 -1.605,2.915c-1.052,0.874 -2.363,1.338 -3.932,1.391c-1.551,0.036 -2.808,-0.464 -3.771,-1.498l-8.72,-9.307l-8.719,9.307c-0.998,1.07 -2.264,1.587 -3.798,1.552c-1.533,-0.054 -2.826,-0.526 -3.878,-1.418c-1.052,-0.892 -1.578,-1.872 -1.578,-2.942c0,-1.088 0.356,-2.113 1.07,-3.076l9.842,-10.485l-9.842,-10.752c-0.714,-0.963 -1.07,-1.997 -1.07,-3.102c0,-1.106 0.517,-2.113 1.551,-3.023c1.052,-0.927 2.345,-1.417 3.878,-1.471c1.552,-0.071 2.827,0.446 3.825,1.552l8.719,9.575l8.72,-9.575c0.981,-1.07 2.247,-1.578 3.798,-1.525c1.569,0.036 2.88,0.508 3.932,1.418c1.052,0.909 1.578,1.925 1.578,3.049c0,1.105 -0.357,2.139 -1.07,3.102l-9.896,10.752Z" style="fill:#fff;fill-rule:nonzero;"/><path id="path3370" d="M222.779,83.637l0,23.002c0,3.103 -1.765,4.654 -5.296,4.654c-3.53,0 -5.295,-1.551 -5.295,-4.654l0,-23.002l-5.35,0c-2.853,0 -4.279,-1.417 -4.279,-4.252c0,-2.836 1.426,-4.253 4.279,-4.253l21.344,0c2.853,0 4.279,1.417 4.279,4.253c0,2.835 -1.426,4.252 -4.279,4.252l-5.403,0Z" style="fill:#fff;fill-rule:nonzero;"/><path id="path3372" d="M257.844,75.132c3.53,0 5.296,1.551 5.296,4.654l0,26.8c0,3.102 -1.766,4.654 -5.296,4.654c-3.531,0 -5.296,-1.552 -5.296,-4.654l0,-9.201l-7.221,0l0,9.201c0,3.102 -1.766,4.654 -5.296,4.654c-3.531,0 -5.296,-1.552 -5.296,-4.654l0,-26.8c0,-3.103 1.765,-4.654 5.296,-4.654c3.53,0 5.296,1.551 5.296,4.654l0,9.04l7.221,0l0,-9.04c0,-3.103 1.765,-4.654 5.296,-4.654Z" style="fill:#fff;fill-rule:nonzero;"/><path id="path3374" d="M288.067,95.887l5.296,6.954c0.785,1.034 1.177,2.14 1.177,3.317c0,1.177 -0.713,2.318 -2.14,3.423c-1.426,1.088 -2.737,1.632 -3.931,1.632c-1.195,0 -2.327,-0.722 -3.397,-2.167l-8.613,-11.501l0,9.041c0,3.102 -1.765,4.654 -5.295,4.654c-3.531,0 -5.296,-1.552 -5.296,-4.654l0,-26.8c0,-3.103 1.765,-4.654 5.296,-4.654l11.982,0c2.96,0 5.421,1.141 7.382,3.423c1.962,2.265 2.942,4.699 2.942,7.302c0,4.654 -1.801,7.997 -5.403,10.03Zm-11.608,-13.48l0,8.238l3.05,0c2.995,0 4.493,-1.373 4.493,-4.119c0,-2.746 -1.498,-4.119 -4.493,-4.119l-3.05,0Z" style="fill:#fff;fill-rule:nonzero;"/><path id="path3376" d="M334.633,92.838c0,5.581 -1.81,10.101 -5.429,13.561c-3.62,3.441 -8.203,5.162 -13.748,5.162c-5.546,0 -10.11,-1.721 -13.694,-5.162c-3.584,-3.46 -5.376,-7.98 -5.376,-13.561c0,-5.581 1.783,-10.101 5.349,-13.56c3.566,-3.477 8.158,-5.216 13.774,-5.216c5.635,0 10.226,1.739 13.775,5.216c3.566,3.459 5.349,7.979 5.349,13.56Zm-12.678,-6.713c-1.605,-1.766 -3.744,-2.648 -6.419,-2.648c-2.675,0 -4.823,0.891 -6.446,2.674c-1.622,1.766 -2.434,4.003 -2.434,6.714c0,2.692 0.812,4.912 2.434,6.66c1.623,1.747 3.763,2.621 6.419,2.621c2.675,0 4.815,-0.883 6.42,-2.648c1.622,-1.765 2.433,-3.994 2.433,-6.687c0,-2.692 -0.802,-4.921 -2.407,-6.686Z" style="fill:#fff;fill-rule:nonzero;"/><path id="path3378" d="M366.408,111.347c-2.193,0 -3.843,-1.266 -4.948,-3.798l-3.21,-7.008l-3.209,7.008c-1.159,2.532 -2.827,3.798 -5.002,3.798c-2.157,0 -3.86,-1.266 -5.108,-3.798l-7.81,-24.126c-0.411,-1.266 -0.616,-2.452 -0.616,-3.557c0,-1.106 0.419,-2.193 1.257,-3.263c0.856,-1.088 2.363,-1.623 4.521,-1.605c2.175,0.018 3.664,1.257 4.466,3.718l4.012,12.41l2.514,-5.456c1.159,-2.496 2.836,-3.745 5.029,-3.745c2.193,0 3.851,1.249 4.975,3.745l2.46,5.456l4.066,-12.41c0.802,-2.461 2.273,-3.7 4.413,-3.718c2.158,-0.018 3.664,0.517 4.52,1.605c0.874,1.088 1.311,2.184 1.311,3.29c0,1.105 -0.205,2.282 -0.615,3.53l-7.864,24.126c-1.248,2.532 -2.969,3.798 -5.162,3.798Z" style="fill:#fff;fill-rule:nonzero;"/><path id="path3380" d="M400.51,111.24c2.746,0 4.119,-1.418 4.119,-4.253c0,-2.835 -1.373,-4.253 -4.119,-4.253l-7.543,0l0,-5.349l6.473,0c2.746,0 4.119,-1.427 4.119,-4.28c0,-2.852 -1.373,-4.279 -4.119,-4.279l-6.473,0l0,-5.189l7.543,0c2.746,0 4.119,-1.417 4.119,-4.252c0,-2.836 -1.373,-4.253 -4.119,-4.253l-12.839,0c-3.53,0 -5.295,1.551 -5.295,4.654l0,26.8c0,3.102 1.765,4.654 5.295,4.654l12.839,0Z" style="fill:#fff;fill-rule:nonzero;"/><path id="path3382" d="M429.503,95.887l5.296,6.954c0.784,1.034 1.177,2.14 1.177,3.317c0,1.177 -0.714,2.318 -2.14,3.423c-1.427,1.088 -2.737,1.632 -3.932,1.632c-1.194,0 -2.327,-0.722 -3.397,-2.167l-8.612,-11.501l0,9.041c0,3.102 -1.765,4.654 -5.296,4.654c-3.53,0 -5.296,-1.552 -5.296,-4.654l0,-26.8c0,-3.103 1.766,-4.654 5.296,-4.654l11.983,0c2.96,0 5.42,1.141 7.382,3.423c1.961,2.265 2.942,4.699 2.942,7.302c0,4.654 -1.801,7.997 -5.403,10.03Zm-11.608,-13.48l0,8.238l3.049,0c2.996,0 4.494,-1.373 4.494,-4.119c0,-2.746 -1.498,-4.119 -4.494,-4.119l-3.049,0Z" style="fill:#fff;fill-rule:nonzero;"/><path id="path4547" d="M78.286,37.102c-22.786,-0.134 -29.969,19.324 -30.025,30.557c-0.171,8.293 0.672,17.696 1.802,27.475c1.13,9.779 -4.695,16.746 -10.661,19.518c-4.658,2.165 -19.436,6.009 -25.434,7.489c-5.393,1.332 -16.745,5.208 -13.343,13.469c4.443,9.725 15.606,-2.124 22.262,-2.941c5.622,-0.25 8.759,6.256 14.114,6.156c5.354,-0.101 9.195,-9.021 16.815,-10.51c2.088,-0.123 3.817,0.474 5.104,1.953c5.381,7.336 9.823,10.853 14.114,10.509c4.291,-0.344 6.894,-3.698 9.459,-9.309c2.566,-5.612 8.185,-6.047 11.861,-3.453c6.576,5.343 14.261,14.977 22.971,8.859c8.718,-6.809 -6.42,-18.321 -13.513,-24.024c-5.032,-4.964 -9.274,-14.24 -3.752,-23.121c5.521,-8.881 10.201,-10.793 10.959,-22.67c0.479,-17.607 -16.324,-29.6 -32.733,-29.957Zm8.46,9.526c23.899,1.216 22.781,27.372 13.135,34.891c-8.997,6.276 -24.326,3.784 -28.799,-13.409c-2.398,-10.326 2.621,-21.722 15.664,-21.482Z" style="fill:#800080;"/><path id="path4555" d="M101.825,60.001l-8.037,-2.246c-1.006,4.084 -2.321,8.3 -4.392,12.841l10.462,4.813c2.742,-5.302 2.832,-10.345 1.967,-15.408Z" style="fill:#800080;"/></g><g id="czapek"><g><path d="M41.556,56.621c0.193,-4.146 -0.11,-6.835 0.502,-10.974c-6.177,4.656 -16.357,9.874 -15.319,5.948c6.614,-10.849 13.192,-24.67 19.074,-31.404c1.673,-1.51 5.75,-4.202 10.461,-3.773c5.928,0.54 27.518,10.552 27.17,10.699c-12.16,12.801 -24.801,24.811 -41.888,29.504Z" style="fill:#f50e00;"/><path d="M41.589,35.909c3.005,-0.35 1.01,5.613 0.469,9.738" style="fill:none;"/></g><g><path d="M64.351,52.393c0,0 -14.945,12.366 -15.98,15.463c-1.035,3.097 -10.452,-4.966 -7.942,-10.069c2.509,-5.104 9.303,-13.056 9.303,-13.056l-0.876,3.549c0,0 8.307,-11.428 16.933,-15.807c-1.451,2.303 -3.159,4.71 -2.27,3.604c4.209,-5.239 13.363,-8.053 13.363,-8.053l-2.775,3.605c1.893,-2.815 12.338,-6.46 13.353,-4.815c1.383,1.079 4.271,5.376 4.815,13.352c-8.82,2.983 -13.058,2.922 -21.936,7.911c-3.54,2.22 -5.988,4.316 -5.988,4.316" style="fill:#fff;"/><path d="M56.872,58.852c6.451,-6.647 14.02,-15.514 18.847,-17.654c1.733,-0.717 -1.44,3.018 -3.997,4.736" style="fill:none;"/></g><path d="M17.592,49.192c0,0 -2.406,2.434 -2.013,1.525c2.726,-6.312 6.65,-6.394 6.65,-6.394l-1.895,-0.824c0.546,-0.177 1.079,-0.437 1.602,-0.374c7.649,0.924 10.352,5.189 6.947,10.785c1.27,-0.823 2.121,-0.765 2.121,-0.765c-1.578,1.837 -3.531,3.072 -5.854,3.709l1.925,0.905c0,0 -6.276,0.334 -7.443,-2.91c-1.166,-3.244 0.238,3.027 0.313,3.083c0.075,0.057 -4.046,-4.661 -2.353,-8.74Z" style="fill:#fff;"/></g></g></g></svg>